<?xml version="1.0" encoding="utf-8"?>
<!-- Generator: Adobe Illustrator 26.2.1, SVG Export Plug-In . SVG Version: 6.00 Build 0)  -->
<svg version="1.1" id="Layer_1" xmlns="http://www.w3.org/2000/svg" xmlns:xlink="http://www.w3.org/1999/xlink" x="0px" y="0px"
	 viewBox="0 0 200 88.3" style="enable-background:new 0 0 200 88.3;" xml:space="preserve">
<style type="text/css">
	.st0{fill:#E1251B;}
	.st1{fill:none;stroke:#E1251B;stroke-width:1.1941;stroke-miterlimit:10;}
	.st2{fill:#FFFFFF;}
	.st3{fill:none;stroke:#E1251B;stroke-width:2.0399;stroke-miterlimit:10;}
</style>
<g>
	<path class="st0" d="M8.6,12.1c-5.5-0.4-9.7,5.3-8.3,11.1L9.8,63c1.9,8.1,8.5,13.8,16.1,14.1l150,5.6c7.4,0.3,14-4.8,15.8-12.9
		l8.1-36.6c0.9-4.2-1.8-8.3-5.7-8.5L8.6,12.1z"/>
	<path class="st1" d="M8.6,12.1c-5.5-0.4-9.7,5.3-8.3,11.1L9.8,63c1.9,8.1,8.5,13.8,16.1,14.1l150,5.6c7.4,0.3,14-4.8,15.8-12.9
		l8.1-36.6c0.9-4.2-1.8-8.3-5.7-8.5L8.6,12.1z"/>
	<path class="st2" d="M7,16l11.7,53.1c1.6,7.3,7.7,12.2,14.5,11.7l135.7-10c8-0.6,14.9-6.7,17.1-15.1l8.4-32.3
		c1.6-6.1-2.5-12.1-8.2-12.3L14.7,5.6C9.6,5.5,5.9,10.6,7,16"/>
	<path class="st3" d="M7,16l11.7,53.1c1.6,7.3,7.7,12.2,14.5,11.7l135.7-10c8-0.6,14.9-6.7,17.1-15.1l8.4-32.3
		c1.6-6.1-2.5-12.1-8.2-12.3L14.7,5.6C9.6,5.5,5.9,10.6,7,16z"/>
	<path d="M43.8,61c0-0.1-0.1-0.2-0.2-0.2h-1.1c-0.2,0-0.2-0.1-0.2-0.2v-0.7c0-0.1,0.1-0.2,0.2-0.2h4.1c0.2,0,0.2,0.1,0.2,0.2v0.7
		c0,0.1-0.1,0.2-0.2,0.2h-1.1c-0.2,0-0.2,0.1-0.2,0.2v3c0,0.1-0.1,0.2-0.2,0.2h-0.9c-0.2,0-0.2-0.1-0.2-0.2v-3H43.8z"/>
	<path d="M50.3,59.6c0.2,0,0.2,0.1,0.2,0.2v1.6c0,0.1,0.1,0.2,0.2,0.2h0.8c0.2,0,0.2-0.1,0.2-0.2v-1.6c0-0.1,0.1-0.2,0.2-0.2h0.9
		c0.2,0,0.2,0.1,0.2,0.2v4.1c0,0.1-0.1,0.2-0.2,0.2H52c-0.2,0-0.2-0.1-0.2-0.2v-1c0-0.1-0.1-0.2-0.2-0.2h-0.8
		c-0.2,0-0.2,0.1-0.2,0.2v1c0,0.1-0.1,0.2-0.2,0.2h-0.9c-0.2,0-0.2-0.1-0.2-0.2v-4.1c0-0.1,0.1-0.2,0.2-0.2
		C49.4,59.6,50.3,59.6,50.3,59.6z"/>
	<path d="M59.5,59.6c0.2,0,0.2,0.1,0.2,0.2v0.7c0,0.1-0.1,0.2-0.2,0.2h-1.9c-0.2,0-0.2,0.1-0.2,0.2v0.2c0,0.1,0.1,0.2,0.2,0.2h1.2
		c0.2,0,0.2,0.1,0.2,0.2v0.7c0,0.1-0.1,0.2-0.2,0.2h-1.2c-0.2,0-0.2,0.1-0.2,0.2v0.2c0,0.1,0.1,0.2,0.2,0.2h1.9
		c0.2,0,0.2,0.1,0.2,0.2v0.7c0,0.1-0.1,0.2-0.2,0.2h-3.4c-0.2,0-0.2-0.1-0.2-0.2v-4.1c0-0.1,0.1-0.2,0.2-0.2h3.4V59.6z"/>
	<path d="M69.5,61.2c-0.2,0-0.2-0.1-0.3-0.2c-0.1-0.3-0.3-0.4-0.7-0.4c-0.3,0-0.5,0.2-0.5,0.3c0.1,0.5,2.6,0.5,2.6,1.9
		c0,0.2-0.3,1.3-2.1,1.3c-1.7,0-2-0.9-2-1.4c0-0.1,0.1-0.2,0.2-0.2l0.9-0.2c0.2,0,0.2,0.1,0.3,0.2c0.1,0.3,0.3,0.5,0.7,0.5
		c0.4,0,0.7-0.2,0.6-0.3c-0.2-0.6-2.5-0.4-2.5-1.9c0-0.2,0.1-1.3,1.9-1.3c1.7,0,2,0.8,2.1,1.3c0,0.1-0.1,0.2-0.2,0.2L69.5,61.2z"/>
	<path d="M74.3,59.6c0.2,0,0.2,0.1,0.2,0.2v4.1c0,0.1-0.1,0.2-0.2,0.2h-0.9c-0.2,0-0.2-0.1-0.2-0.2v-4.1c0-0.1,0.1-0.2,0.2-0.2
		C73.4,59.6,74.3,59.6,74.3,59.6z"/>
	<path d="M79.3,59.6c1.4,0,2,0.5,2,1.5c0,1-0.6,1.5-2,1.5h-0.4c-0.2,0-0.2,0.1-0.2,0.2v1c0,0.1-0.1,0.2-0.2,0.2h-0.9
		c-0.2,0-0.2-0.1-0.2-0.2v-4.1c0-0.1,0.1-0.2,0.2-0.2L79.3,59.6L79.3,59.6z M79.4,61.6c0.4,0,0.6-0.1,0.6-0.4s-0.2-0.4-0.6-0.4h-0.4
		c-0.2,0-0.2,0.1-0.2,0.2v0.5c0,0.1,0.1,0.2,0.2,0.2L79.4,61.6L79.4,61.6z"/>
	<path d="M92.1,62.7c0,0.4-0.1,1.5-2,1.5c-1.9,0-2-1.1-2-1.5v-1.6c0-0.4,0.1-1.5,2-1.5c1.9,0,2,1.1,2,1.5V62.7z M90.7,61.4
		c0-0.5-0.1-0.8-0.6-0.8c-0.6,0-0.6,0.3-0.6,0.8v0.9c0,0.5,0.1,0.8,0.6,0.8c0.6,0,0.6-0.3,0.6-0.8V61.4z"/>
	<path d="M98.4,59.6c0.2,0,0.2,0.1,0.2,0.2v0.7c0,0.1-0.1,0.2-0.2,0.2h-2c-0.2,0-0.2,0.1-0.2,0.2v0.2c0,0.1,0.1,0.2,0.2,0.2h1.3
		c0.2,0,0.2,0.1,0.2,0.2v0.7c0,0.1-0.1,0.2-0.2,0.2h-1.3c-0.2,0-0.2,0.1-0.2,0.2v1.3c0,0.1-0.1,0.2-0.2,0.2h-0.9
		c-0.2,0-0.2-0.1-0.2-0.2v-4.1c0-0.1,0.1-0.2,0.2-0.2h3.4V59.6z"/>
	<path d="M109.2,59.6c0.2,0,0.2,0.1,0.2,0.2v0.7c0,0.1-0.1,0.2-0.2,0.2h-2c-0.2,0-0.2,0.1-0.2,0.2v0.2c0,0.1,0.1,0.2,0.2,0.2h1.3
		c0.2,0,0.2,0.1,0.2,0.2v0.7c0,0.1-0.1,0.2-0.2,0.2h-1.3c-0.2,0-0.2,0.1-0.2,0.2v1.3c0,0.1-0.1,0.2-0.2,0.2h-0.9
		c-0.2,0-0.2-0.1-0.2-0.2v-4.1c0-0.1,0.1-0.2,0.2-0.2h3.4V59.6z"/>
	<path d="M116,63.8c0.1,0.2,0,0.3-0.3,0.3h-0.9c-0.1,0-0.2-0.1-0.2-0.1l-0.8-1.3l-0.1-0.1h-0.3c-0.2,0-0.2,0.1-0.2,0.2v1
		c0,0.1-0.1,0.2-0.2,0.2h-0.9c-0.2,0-0.2-0.1-0.2-0.2v-4.1c0-0.1,0.1-0.2,0.2-0.2h1.8c1.4,0,2,0.5,2,1.5c0,0.6-0.2,1-0.6,1.3
		c-0.1,0-0.1,0.1,0,0.1L116,63.8z M113.4,60.7c-0.2,0-0.2,0.1-0.2,0.2v0.5c0,0.1,0.1,0.2,0.2,0.2h0.4c0.4,0,0.6-0.1,0.6-0.4
		c0-0.4-0.2-0.4-0.6-0.4L113.4,60.7L113.4,60.7z"/>
	<path d="M122.1,59.6c0.2,0,0.2,0.1,0.2,0.2v0.7c0,0.1-0.1,0.2-0.2,0.2h-1.9c-0.2,0-0.2,0.1-0.2,0.2v0.2c0,0.1,0.1,0.2,0.2,0.2h1.2
		c0.2,0,0.2,0.1,0.2,0.2v0.7c0,0.1-0.1,0.2-0.2,0.2h-1.2c-0.2,0-0.2,0.1-0.2,0.2v0.2c0,0.1,0.1,0.2,0.2,0.2h1.9
		c0.2,0,0.2,0.1,0.2,0.2v0.7c0,0.1-0.1,0.2-0.2,0.2h-3.4c-0.2,0-0.2-0.1-0.2-0.2v-4.1c0-0.1,0.1-0.2,0.2-0.2h3.4V59.6z"/>
	<path d="M127.5,61.2c-0.2,0-0.2-0.1-0.3-0.2c-0.1-0.3-0.3-0.4-0.7-0.4c-0.3,0-0.5,0.2-0.5,0.3c0.1,0.5,2.6,0.5,2.6,1.9
		c0,0.2-0.3,1.3-2.1,1.3c-1.7,0-2-0.9-2.1-1.4c0-0.1,0.1-0.2,0.2-0.2l0.9-0.2c0.2,0,0.2,0.1,0.3,0.2c0.1,0.3,0.3,0.5,0.7,0.5
		c0.4,0,0.7-0.2,0.6-0.3c-0.2-0.6-2.5-0.4-2.5-1.9c0-0.2,0.1-1.3,1.9-1.3c1.7,0,2,0.8,2,1.3c0,0.1-0.1,0.2-0.2,0.2L127.5,61.2z"/>
	<path d="M132.4,59.6c0.2,0,0.2,0.1,0.2,0.2v1.6c0,0.1,0.1,0.2,0.2,0.2h0.8c0.2,0,0.2-0.1,0.2-0.2v-1.6c0-0.1,0.1-0.2,0.2-0.2h0.9
		c0.2,0,0.2,0.1,0.2,0.2v4.1c0,0.1-0.1,0.2-0.2,0.2h-0.8c-0.2,0-0.2-0.1-0.2-0.2v-1c0-0.1-0.1-0.2-0.2-0.2h-0.8
		c-0.2,0-0.2,0.1-0.2,0.2v1c0,0.1-0.1,0.2-0.2,0.2h-0.9c-0.2,0-0.2-0.1-0.2-0.2v-4.1c0-0.1,0.1-0.2,0.2-0.2
		C131.6,59.6,132.4,59.6,132.4,59.6z"/>
	<path d="M139.4,59.6c0.1,0,0.2,0.1,0.3,0.2l1.1,2.1c0.1,0.1,0.1,0.1,0.1,0v-2c0-0.1,0.1-0.2,0.2-0.2h0.9c0.2,0,0.2,0.1,0.2,0.2v4.1
		c0,0.1-0.1,0.2-0.2,0.2h-1.2c-0.1,0-0.2-0.1-0.3-0.2l-1.1-2.1c-0.1-0.1-0.1-0.1-0.1,0v2c0,0.1-0.1,0.2-0.2,0.2h-0.9
		c-0.2,0-0.2-0.1-0.2-0.2v-4.1c0-0.1,0.1-0.2,0.2-0.2C138.3,59.6,139.4,59.6,139.4,59.6z"/>
	<path d="M148.6,59.6c0.2,0,0.2,0.1,0.2,0.2v0.7c0,0.1-0.1,0.2-0.2,0.2h-1.9c-0.2,0-0.2,0.1-0.2,0.2v0.2c0,0.1,0.1,0.2,0.2,0.2h1.2
		c0.2,0,0.2,0.1,0.2,0.2v0.7c0,0.1-0.1,0.2-0.2,0.2h-1.2c-0.2,0-0.2,0.1-0.2,0.2v0.2c0,0.1,0.1,0.2,0.2,0.2h1.9
		c0.2,0,0.2,0.1,0.2,0.2v0.7c0,0.1-0.1,0.2-0.2,0.2h-3.4c-0.2,0-0.2-0.1-0.2-0.2v-4.1c0-0.1,0.1-0.2,0.2-0.2h3.4V59.6z"/>
	<path d="M154.1,61.2c-0.2,0-0.2-0.1-0.3-0.2c-0.1-0.3-0.3-0.4-0.7-0.4c-0.3,0-0.5,0.2-0.5,0.3c0.1,0.5,2.6,0.5,2.6,1.9
		c0,0.2-0.3,1.3-2.1,1.3c-1.7,0-2-0.9-2-1.4c0-0.1,0.1-0.2,0.2-0.2l0.9-0.2c0.2,0,0.2,0.1,0.3,0.2c0.1,0.3,0.3,0.5,0.7,0.5
		c0.4,0,0.7-0.2,0.6-0.3c-0.2-0.6-2.5-0.4-2.5-1.9c0-0.2,0.1-1.3,1.9-1.3c1.7,0,2,0.8,2.1,1.3c0,0.1-0.1,0.2-0.2,0.2L154.1,61.2z"/>
	<path d="M160.6,61.2c-0.2,0-0.2-0.1-0.3-0.2c-0.1-0.3-0.3-0.4-0.7-0.4c-0.3,0-0.5,0.2-0.5,0.3c0.1,0.5,2.6,0.5,2.6,1.9
		c0,0.2-0.3,1.3-2.1,1.3c-1.7,0-2-0.9-2-1.4c0-0.1,0.1-0.2,0.2-0.2l0.9-0.2c0.2,0,0.2,0.1,0.3,0.2c0.1,0.3,0.3,0.5,0.7,0.5
		c0.4,0,0.7-0.2,0.6-0.3c-0.2-0.6-2.5-0.4-2.5-1.9c0-0.2,0.1-1.3,1.9-1.3c1.7,0,2,0.8,2,1.3c0,0.1-0.1,0.2-0.2,0.2L160.6,61.2z"/>
	<path d="M77.8,17.7c0,0-7.5,0.3-16.1,0.7l-1.4,7.8c0,0,10.6-0.5,12.7-0.6c1.4-0.1,1.5,0.6,1.3,1.4c-0.1,0.3-0.5,1.4-0.6,1.7
		c-0.3,0.7-0.8,0.8-1.5,0.8C71.5,29.5,59.7,30,59.7,30L56,53.9c6.1-0.3,11.1-0.5,11.1-0.5l2.8-16c0,0,5.9-0.4,10-1.4
		c4.1-1,5.6-3.9,6.5-7.5C87.3,24.6,89.1,17.1,77.8,17.7"/>
	<path d="M56.7,26.4l1.1-7.8c-9.6,0.2-19.3,0.9-20.5,0.9c-2.9,0.1-4.4,1.7-5.1,8L56.7,26.4z"/>
	<path d="M53.4,46.7l-12.5,0.6c-1.9,0.1-1.6-0.6-1.1-3.5c0.4-2.4,1.3-5.2,1.3-5.2L55,37.9l1.1-7.8l-24.7,1.1
		c-0.3,2.1-2.4,15.3-2.6,17c-0.3,1.9-0.7,6.9,6,6.6c3.1-0.2,10.6-0.7,17.6-0.8L53.4,46.7z"/>
	<path d="M107.2,42.7l-0.2,6.7c-2.8,0.9-5.6,1.5-8.6,1.7c-8.4,0.3-10.6-4.4-8.6-13c2-8.6,6.5-14,15.6-14.4c3-0.1,5.3,0.4,7.3,1.2
		l-3.2,7.7c-2.4-0.6-4.2-1-5.5-1c-2.5,0.1-3.8,2.1-4.7,6.3c-1,4.2-0.7,6.2,2,6.1C102.4,43.8,104.6,43.3,107.2,42.7"/>
	<path d="M121.4,37.3l0.2-0.8c0.1-0.4-0.1-0.8-0.7-0.7c-1.7,0.1-4.8,0.8-8,1.6l0.2-6.7c3.9-1,7.7-1.7,11.7-1.9
		c5.5-0.2,7.1,1.7,6.2,5.7c-0.6,2.5-1.5,5.6-2.2,8.5c-0.2,0.8,0.4,0.9,1.9,0.9l-2.1,5.7c-1.3,0.1-2.4,0.3-3.6,0.3
		c-1.9,0.1-3.6-0.4-4.3-1.5h-0.3c-1.4,1-3.1,1.8-5.8,1.9c-4.2,0.2-5.9-2.1-5-5.9C110.6,39.4,114.7,38.1,121.4,37.3 M120.2,43.5
		l0.4-1.6c-1.6,0.3-2.4,0.7-2.7,1.8c-0.2,0.8,0.1,1.2,0.7,1.2C119.5,44.8,120.1,44.3,120.2,43.5"/>
	<path d="M152.7,21.4l-2.3,6.7c-1.5-0.1-2.7-0.2-3.4-0.1c-0.3,0-0.5,0.2-0.6,0.4l-0.2,0.7l3.7-0.2l-1.8,5.8l-3.2,0.1l-3.2,14
		l-9.2,0.3l3.2-14l-2.1,0.1l1.3-5.7l2.1-0.1l0.5-2c0.8-3.7,3.6-5.8,8.4-6C148.3,21.4,150.6,21.4,152.7,21.4"/>
	<path d="M170.5,35.3c-0.3,1.2-0.8,2.8-1.4,4.8L158,40.5c-0.3,1.7,0.6,2.3,2.4,2.2c1.5-0.1,3.4-0.5,6.9-1.2l-0.6,5.7
		c-3.2,0.9-5.9,1.4-9,1.5c-7.2,0.3-10-3.7-8.5-10.1c1.6-6.9,6.1-11,13.4-11.2C170,27.2,171.6,30.3,170.5,35.3 M158.7,36.6l3.2-0.1
		l0.2-0.7c0.2-1,0-1.5-1.2-1.5C159.5,34.4,159,35.2,158.7,36.6 M165.4,26.2l-6.1,0.2l4.1-5.6l9.4-0.4L165.4,26.2z"/>
</g>
</svg>
