<?xml version="1.0" encoding="utf-8"?>
<!-- Generator: Adobe Illustrator 23.0.3, SVG Export Plug-In . SVG Version: 6.00 Build 0)  -->
<svg version="1.1" id="Layer_1" xmlns="http://www.w3.org/2000/svg" xmlns:xlink="http://www.w3.org/1999/xlink" x="0px" y="0px"
	 viewBox="0 0 206.9 51.4" style="enable-background:new 0 0 206.9 51.4;" xml:space="preserve">
<style type="text/css">
	.st0{fill:#565559;}
	.st1{fill:#E1251B;}
</style>
<path class="st0" d="M68.6,16v8.1h3.6v3.1h-3.6v11.6h-3.4v-26h8.1V16H68.6z"/>
<path class="st0" d="M80.5,39.2c-2.8,0-5-2.1-5-5.1V12.9H79v21.4c0,1.1,0.5,1.7,1.5,1.7c1.1,0,1.6-0.6,1.6-1.7V12.9h3.3v21.2
	C85.4,37.2,83.4,39.2,80.5,39.2z"/>
<path class="st0" d="M87,38.8v-26h8.3v3.2h-4.9v7.8h3.4V27h-3.4v8.6h4.9v3.2H87z"/>
<path class="st0" d="M97.2,38.8v-26h3.4v22.7h4.7v3.2H97.2z"/>
<path class="st1" d="M118.6,39c-1.2,0-1.8-1.6-1.8-3.4v-6.2c0-0.9-0.5-1.6-1.4-1.6h-1.5v11.1h-3.4V13h5.3c2.2,0,4.3,1.2,4.3,4.6V23
	c0,1.6-0.7,2.7-2,3.3c1.3,0.6,2.1,1.8,2.1,3.3v5.8c0,1.2,0.2,2,0.6,2.7v1H118.6z M116.7,17.6c0-1-0.4-1.5-1.1-1.5h-1.6v8.7h1.5
	c0.8,0,1.2-0.5,1.2-1.6V17.6z"/>
<path class="st1" d="M122.4,38.9V13h8.3v3.2h-4.9V24h3.4v3.1h-3.4v8.6h4.9v3.2H122.4z"/>
<path class="st1" d="M144.9,38.9h-3l-1.7-15.6l-1.9,15.6h-3l-3-26h3.4l1.4,17.5l2-17.5h2.6l1.7,17.5l1.7-17.5h3.1L144.9,38.9z"/>
<path class="st1" d="M155,38.9l-0.5-5h-3l-0.6,5h-3.1l3.5-26h3.7l3.5,26H155z M153.1,19.6l-1.2,11.1h2.3L153.1,19.6z"/>
<path class="st1" d="M167.9,39c-1.2,0-1.8-1.6-1.8-3.4v-6.2c0-0.9-0.5-1.6-1.4-1.6h-1.5v11.1h-3.4V13h5.3c2.2,0,4.3,1.2,4.3,4.6V23
	c0,1.6-0.7,2.7-2,3.3c1.3,0.6,2.1,1.8,2.1,3.3v5.8c0,1.2,0.2,2,0.6,2.7v1H167.9z M166,17.6c0-1-0.4-1.5-1.1-1.5h-1.6v8.7h1.5
	c0.8,0,1.2-0.5,1.2-1.6V17.6z"/>
<path class="st1" d="M177.7,38.9h-5.1V13h5.1c2.9,0,4.8,1.8,4.8,5.4v15.2C182.4,37.3,180.6,38.9,177.7,38.9z M179,18.3
	c0-1.4-0.4-2.1-1.5-2.1H176v19.5h1.5c1.1,0,1.5-0.7,1.5-2.1V18.3z"/>
<path class="st1" d="M189,39.3c-3.1,0-4.9-2-4.9-5.3v-2.8h3.1v2.9c0,1.4,0.6,2.2,1.7,2.2c1.2,0,1.8-0.8,1.8-2.1c0-2.4-0.9-4.3-2.7-7
	c-1.7-2.4-3.7-5.9-3.7-8.9c0-3.3,1.6-5.7,5-5.7c2.8,0,4.6,2,4.6,5.3v2.9h-3.1v-3.1c0-1.3-0.5-2.1-1.6-2.1c-1,0-1.7,0.7-1.7,1.9
	c0,2.9,1,4.2,2.9,7.2c2,2.9,3.5,5.8,3.5,8.8C194,37.7,191.5,39.3,189,39.3z"/>
<path class="st0" d="M23.1,33.6c-0.9,0-1.2,0.6-1.2,1.4l0,3.5h-9.1l0-20.7c0-3.8,2.3-5.1,4.7-5.1l13.2,0l0,8h-8.1l0,4.8h8.1v4.2v3.8
	H23.1z"/>
<path class="st1" d="M44.7,38.5l9.4,0l-0.4-6.7c0-1.7-1.1-3.2-2.5-3.9c1.5-0.7,2.2-1.9,2.2-3.7v-6.1c0-3.8-2.4-5.2-4.9-5.2l-12.5,0
	v8H44v4.7h-8.1v8l7.5,0c0.9,0,1.2,0.6,1.2,1.4L44.7,38.5z"/>
<g>
	<path class="st1" d="M196.4,38.1c0,0.7-0.5,1.2-1.2,1.2c-0.7,0-1.2-0.5-1.2-1.2s0.5-1.2,1.2-1.2C195.9,36.9,196.4,37.4,196.4,38.1z
		 M196.2,38.1c0-0.6-0.4-1-1-1c-0.6,0-1,0.5-1,1c0,0.6,0.4,1,1,1C195.8,39.1,196.2,38.7,196.2,38.1z M195.4,38.3l0.3,0.4h-0.2
		l-0.3-0.4H195v0.4h-0.2v-1.2h0.5c0.3,0,0.4,0.2,0.4,0.4C195.7,38.1,195.6,38.2,195.4,38.3z M195,38.1h0.2c0.1,0,0.2-0.1,0.2-0.2
		c0-0.1-0.1-0.2-0.2-0.2H195V38.1z"/>
</g>
</svg>
