<?xml version="1.0" encoding="utf-8"?>
<!-- Generator: Adobe Illustrator 26.2.1, SVG Export Plug-In . SVG Version: 6.00 Build 0)  -->
<svg version="1.1" id="Layer_1" xmlns="http://www.w3.org/2000/svg" xmlns:xlink="http://www.w3.org/1999/xlink" x="0px" y="0px"
	 viewBox="0 0 300 300" style="enable-background:new 0 0 300 300;" xml:space="preserve">
<style type="text/css">
	.st0{fill:#E02826;}
	.st1{fill:#FFFFFF;}
</style>
<g>
	<circle class="st0" cx="150" cy="150" r="150"/>
	<g>
		<g>
			<path class="st1" d="M151,113.4h-38.9l-0.4,15.1c2.1-0.7,5-1.1,8.7-1.1c5,0,9.6,0.7,13.7,2.2c4.2,1.5,7.7,3.6,10.7,6.4
				c3,2.8,5.3,6.2,7,10.2c1.7,4,2.5,8.5,2.5,13.5c0,5.5-0.9,10.5-2.8,14.8c-1.9,4.3-4.5,8-7.8,11c-3.3,3-7.3,5.3-11.8,6.9
				c-4.6,1.6-9.5,2.4-14.9,2.4c-8.5,0-15.6-2.1-21.3-6.2c-5.7-4.2-9.6-10.4-11.8-18.8l21.7-5c0.6,3.5,2,6.3,4.4,8.5
				c2.4,2.2,5.4,3.3,9,3.3c4.4,0,8-1.4,10.6-4.2c2.6-2.8,3.9-6.3,3.9-10.5c0-3.2-0.7-5.9-2-8c-1.3-2.1-3.1-3.7-5.3-5
				c-2.2-1.2-4.6-2.1-7.3-2.6c-2.7-0.5-5.4-0.7-8-0.7c-3.4,0-6.9,0.3-10.3,1c-3.5,0.6-6.8,1.5-10,2.6l1.1-54.1H151V113.4z"/>
			<path class="st1" d="M192.4,149.3c-3.5-0.2-6.8-1-9.7-2.4c-2.9-1.4-5.4-3.2-7.4-5.5c-2-2.3-3.6-4.9-4.7-7.9
				c-1.1-3-1.7-6.2-1.7-9.7c0-3.5,0.5-6.8,1.7-9.7c1.1-2.9,2.7-5.5,4.7-7.7c2-2.2,4.5-4,7.4-5.4c2.9-1.4,6.1-2.3,9.7-2.7v-6.6h6v6.6
				c3.4,0,6.5,0.5,9.2,1.4c2.7,1,5.4,2.6,8,4.8l-9.6,10.2c-1.3-1.3-2.6-2.3-4-2.9c-1.3-0.6-2.5-0.9-3.6-0.9v25.8
				c0.4,0,0.8,0,1.3-0.1c0.5-0.1,1.1-0.2,1.8-0.5c0.7-0.3,1.5-0.7,2.3-1.3c0.8-0.6,1.8-1.4,2.8-2.4l9.1,10.7c-1.3,1.2-2.7,2.2-4.2,3
				c-1.5,0.8-3.1,1.4-4.7,1.9c-1.6,0.5-3.1,0.8-4.6,1c-1.5,0.2-2.8,0.3-4,0.3v6.9h-6V149.3z M192.4,110.9c-3.1,0.6-5.4,2.1-6.9,4.5
				c-1.4,2.4-2.1,5.2-2.1,8.3c0,3.1,0.7,5.8,2.1,8.1c1.4,2.3,3.7,4,6.9,4.9V110.9z"/>
		</g>
		<g>
			<path class="st1" d="M72.8,211.6h17.3v5.2H78.4v4.8h11.1v5.2H78.4v5.2h12.3v5.2h-18V211.6z"/>
			<path class="st1" d="M92.7,219.6h5.8l4.4,11.9h0.1l4.1-11.9h5.4l-6.9,17.5H100L92.7,219.6z"/>
			<path class="st1" d="M131.1,234.1c-0.9,1.1-2,2-3.3,2.6c-1.3,0.6-2.7,0.9-4.1,0.9c-1.3,0-2.6-0.2-3.8-0.6s-2.2-1-3.1-1.9
				c-0.9-0.8-1.6-1.8-2.1-2.9s-0.8-2.4-0.8-3.8c0-1.4,0.3-2.7,0.8-3.8s1.2-2.1,2.1-2.9c0.9-0.8,1.9-1.4,3.1-1.9
				c1.2-0.4,2.5-0.6,3.8-0.6c1.2,0,2.4,0.2,3.4,0.6c1,0.4,1.9,1,2.6,1.9c0.7,0.8,1.3,1.8,1.6,2.9c0.4,1.1,0.6,2.4,0.6,3.8v1.7h-12.5
				c0.2,1,0.7,1.9,1.4,2.5c0.7,0.6,1.6,0.9,2.7,0.9c0.9,0,1.6-0.2,2.2-0.6c0.6-0.4,1.1-0.9,1.6-1.5L131.1,234.1z M126.6,226.4
				c0-0.9-0.3-1.7-0.9-2.3c-0.6-0.6-1.4-1-2.4-1c-0.6,0-1.1,0.1-1.6,0.3c-0.5,0.2-0.8,0.4-1.2,0.7c-0.3,0.3-0.6,0.6-0.8,1
				c-0.2,0.4-0.3,0.8-0.3,1.2H126.6z"/>
			<path class="st1" d="M135.2,219.6h5.4v2.8h0.1c0.6-1.1,1.3-1.9,2.1-2.4s1.8-0.8,3-0.8c0.3,0,0.6,0,0.9,0c0.3,0,0.6,0.1,0.9,0.1
				v4.9c-0.4-0.1-0.8-0.2-1.1-0.3c-0.4-0.1-0.8-0.1-1.2-0.1c-1,0-1.8,0.1-2.4,0.4c-0.6,0.3-1.1,0.7-1.4,1.2
				c-0.3,0.5-0.5,1.1-0.6,1.9c-0.1,0.7-0.1,1.5-0.1,2.4v7.3h-5.4V219.6z"/>
			<path class="st1" d="M160,240c-0.4,0.9-0.7,1.8-1,2.5s-0.8,1.3-1.3,1.8c-0.5,0.5-1.2,0.9-2,1.1c-0.8,0.3-1.8,0.4-3.1,0.4
				c-1.4,0-2.7-0.2-4-0.6l0.7-4.4c0.8,0.4,1.7,0.5,2.5,0.5c0.6,0,1.1-0.1,1.5-0.2c0.4-0.1,0.7-0.3,1-0.6s0.5-0.6,0.6-0.9
				s0.3-0.8,0.5-1.3l0.4-1l-7.7-17.6h5.8l4.5,11.6h0.1l3.9-11.6h5.5L160,240z"/>
			<path class="st1" d="M188.3,237.1h-5v-2.3h-0.1c-0.2,0.3-0.5,0.6-0.8,1s-0.8,0.6-1.2,0.9c-0.5,0.3-1,0.5-1.5,0.6
				c-0.6,0.2-1.1,0.3-1.7,0.3c-1.3,0-2.5-0.2-3.5-0.7c-1.1-0.4-2-1.1-2.7-1.9s-1.3-1.8-1.7-2.9c-0.4-1.1-0.6-2.3-0.6-3.6
				c0-1.2,0.2-2.4,0.6-3.5c0.4-1.1,0.9-2.1,1.6-3c0.7-0.9,1.5-1.6,2.5-2.1c1-0.5,2.1-0.8,3.3-0.8c1.1,0,2.2,0.2,3.2,0.5
				s1.8,0.9,2.4,1.8h0.1v-11.6h5.4V237.1z M183.3,228.4c0-1.3-0.4-2.4-1.1-3.2c-0.8-0.8-1.8-1.2-3.2-1.2s-2.4,0.4-3.2,1.2
				c-0.8,0.8-1.1,1.9-1.1,3.2c0,1.3,0.4,2.4,1.1,3.2c0.8,0.8,1.8,1.2,3.2,1.2s2.4-0.4,3.2-1.2C182.9,230.8,183.3,229.7,183.3,228.4z
				"/>
			<path class="st1" d="M203.6,234.9L203.6,234.9c-0.7,0.9-1.5,1.6-2.5,2s-2,0.6-3.1,0.6c-0.8,0-1.6-0.1-2.4-0.3
				c-0.8-0.2-1.4-0.6-2-1s-1-1-1.4-1.7s-0.5-1.5-0.5-2.3c0-1,0.2-1.9,0.6-2.6c0.4-0.7,0.9-1.3,1.5-1.7c0.6-0.5,1.4-0.8,2.2-1.1
				c0.8-0.3,1.7-0.4,2.5-0.6c0.9-0.1,1.8-0.2,2.6-0.2c0.9,0,1.7,0,2.4,0c0-1-0.3-1.7-1-2.3c-0.7-0.6-1.5-0.8-2.4-0.8
				c-0.9,0-1.7,0.2-2.4,0.6c-0.7,0.4-1.4,0.9-2,1.5l-2.9-3c1-0.9,2.2-1.6,3.5-2.1c1.3-0.5,2.7-0.7,4.2-0.7c1.6,0,2.9,0.2,3.9,0.6
				c1,0.4,1.8,1,2.4,1.7c0.6,0.8,1,1.7,1.3,2.8s0.4,2.4,0.4,3.9v8.9h-5V234.9z M202.2,229.5c-0.4,0-0.9,0-1.5,0.1
				c-0.6,0-1.2,0.1-1.8,0.3c-0.6,0.2-1,0.4-1.4,0.8c-0.4,0.3-0.6,0.8-0.6,1.4c0,0.6,0.3,1.1,0.8,1.4c0.6,0.3,1.1,0.5,1.7,0.5
				c0.5,0,1-0.1,1.5-0.2c0.5-0.1,0.9-0.3,1.3-0.6c0.4-0.3,0.7-0.6,0.9-1c0.2-0.4,0.3-0.9,0.3-1.4v-1.2H202.2z"/>
			<path class="st1" d="M222,240c-0.4,0.9-0.7,1.8-1,2.5c-0.3,0.7-0.8,1.3-1.3,1.8c-0.5,0.5-1.2,0.9-2,1.1c-0.8,0.3-1.8,0.4-3.1,0.4
				c-1.4,0-2.7-0.2-4-0.6l0.7-4.4c0.8,0.4,1.7,0.5,2.5,0.5c0.6,0,1.1-0.1,1.5-0.2s0.7-0.3,1-0.6s0.5-0.6,0.6-0.9s0.3-0.8,0.5-1.3
				l0.4-1l-7.7-17.6h5.8l4.5,11.6h0.1l3.9-11.6h5.5L222,240z"/>
		</g>
		<g>
			<path class="st1" d="M78.6,71.5c-0.6-0.7-1.4-1.1-2.4-1.1c-0.3,0-0.7,0.1-1,0.2s-0.5,0.4-0.5,0.8c0,0.3,0.2,0.6,0.5,0.7
				c0.3,0.2,0.8,0.3,1.3,0.4c0.5,0.1,1.1,0.2,1.7,0.4c0.6,0.1,1.1,0.3,1.7,0.6s0.9,0.7,1.3,1.2c0.3,0.5,0.5,1.2,0.5,2
				c0,0.9-0.2,1.6-0.6,2.1c-0.4,0.6-0.8,1-1.4,1.3c-0.6,0.3-1.2,0.6-2,0.7c-0.7,0.1-1.4,0.2-2.1,0.2c-0.9,0-1.9-0.1-2.8-0.4
				c-0.9-0.3-1.7-0.7-2.4-1.4l2.5-2.7c0.4,0.5,0.8,0.8,1.3,1.1c0.5,0.2,1,0.4,1.6,0.4c0.5,0,0.9-0.1,1.3-0.2
				c0.4-0.1,0.6-0.4,0.6-0.7c0-0.3-0.2-0.6-0.5-0.8c-0.3-0.2-0.8-0.3-1.3-0.4c-0.5-0.1-1.1-0.2-1.7-0.4c-0.6-0.1-1.1-0.3-1.7-0.6
				c-0.5-0.3-0.9-0.7-1.3-1.2c-0.3-0.5-0.5-1.2-0.5-2c0-0.8,0.2-1.4,0.5-2c0.3-0.6,0.7-1,1.3-1.4c0.5-0.4,1.1-0.6,1.8-0.8
				c0.7-0.2,1.3-0.3,2-0.3c0.9,0,1.7,0.1,2.6,0.4c0.9,0.3,1.6,0.7,2.3,1.4L78.6,71.5z"/>
			<path class="st1" d="M92,79.2L92,79.2c-0.5,0.7-1.1,1.2-1.9,1.5c-0.8,0.3-1.5,0.5-2.4,0.5c-0.6,0-1.2-0.1-1.8-0.3
				c-0.6-0.2-1.1-0.4-1.5-0.8c-0.4-0.3-0.8-0.8-1-1.3c-0.3-0.5-0.4-1.1-0.4-1.8c0-0.8,0.1-1.4,0.4-1.9c0.3-0.5,0.7-1,1.1-1.3
				c0.5-0.3,1-0.6,1.6-0.8c0.6-0.2,1.3-0.3,1.9-0.4c0.7-0.1,1.3-0.1,2-0.2s1.3,0,1.8,0c0-0.7-0.3-1.3-0.8-1.7
				c-0.5-0.4-1.1-0.6-1.8-0.6c-0.7,0-1.3,0.1-1.8,0.4c-0.6,0.3-1,0.7-1.5,1.2l-2.2-2.2c0.8-0.7,1.6-1.2,2.7-1.6
				c1-0.4,2.1-0.5,3.2-0.5c1.2,0,2.2,0.1,2.9,0.4c0.8,0.3,1.4,0.7,1.8,1.3c0.5,0.6,0.8,1.3,1,2.1c0.2,0.8,0.3,1.8,0.3,2.9v6.7H92
				V79.2z M91,75.1c-0.3,0-0.7,0-1.2,0c-0.5,0-0.9,0.1-1.3,0.2c-0.4,0.1-0.8,0.3-1.1,0.6C87.1,76.2,87,76.5,87,77
				c0,0.5,0.2,0.9,0.6,1.1c0.4,0.2,0.9,0.4,1.3,0.4c0.4,0,0.8-0.1,1.2-0.2s0.7-0.3,1-0.5c0.3-0.2,0.5-0.5,0.7-0.8s0.3-0.7,0.3-1.1
				v-0.9H91z"/>
			<path class="st1" d="M96.9,67.7h4.4l3.3,9h0.1l3.1-9h4.1l-5.2,13.2h-4.3L96.9,67.7z"/>
			<path class="st1" d="M126,78.6c-0.7,0.8-1.5,1.5-2.5,1.9c-1,0.5-2,0.7-3.1,0.7c-1,0-2-0.2-2.9-0.5c-0.9-0.3-1.7-0.8-2.3-1.4
				s-1.2-1.3-1.6-2.2c-0.4-0.9-0.6-1.8-0.6-2.9s0.2-2,0.6-2.9c0.4-0.9,0.9-1.6,1.6-2.2s1.4-1.1,2.3-1.4c0.9-0.3,1.9-0.5,2.9-0.5
				c0.9,0,1.8,0.2,2.6,0.5c0.8,0.3,1.4,0.8,2,1.4c0.5,0.6,0.9,1.3,1.2,2.2c0.3,0.9,0.4,1.8,0.4,2.9v1.3h-9.5
				c0.2,0.8,0.5,1.4,1.1,1.9c0.5,0.5,1.2,0.7,2,0.7c0.7,0,1.2-0.1,1.7-0.4c0.5-0.3,0.9-0.7,1.2-1.2L126,78.6z M122.5,72.8
				c0-0.7-0.2-1.3-0.7-1.8c-0.5-0.5-1.1-0.7-1.8-0.7c-0.5,0-0.9,0.1-1.2,0.2c-0.3,0.1-0.6,0.3-0.9,0.6s-0.4,0.5-0.6,0.8
				c-0.1,0.3-0.2,0.6-0.2,0.9H122.5z"/>
			<path class="st1" d="M145.4,79.2L145.4,79.2c-0.5,0.7-1.1,1.2-1.9,1.5c-0.8,0.3-1.5,0.5-2.4,0.5c-0.6,0-1.2-0.1-1.8-0.3
				c-0.6-0.2-1.1-0.4-1.5-0.8c-0.4-0.3-0.8-0.8-1-1.3c-0.3-0.5-0.4-1.1-0.4-1.8c0-0.8,0.1-1.4,0.4-1.9c0.3-0.5,0.7-1,1.1-1.3
				c0.5-0.3,1-0.6,1.6-0.8c0.6-0.2,1.3-0.3,1.9-0.4c0.7-0.1,1.3-0.1,2-0.2s1.3,0,1.8,0c0-0.7-0.3-1.3-0.8-1.7
				c-0.5-0.4-1.1-0.6-1.8-0.6c-0.7,0-1.3,0.1-1.8,0.4c-0.6,0.3-1,0.7-1.5,1.2l-2.2-2.2c0.8-0.7,1.6-1.2,2.7-1.6
				c1-0.4,2.1-0.5,3.2-0.5c1.2,0,2.2,0.1,2.9,0.4c0.8,0.3,1.4,0.7,1.8,1.3c0.5,0.6,0.8,1.3,1,2.1c0.2,0.8,0.3,1.8,0.3,2.9v6.7h-3.8
				V79.2z M144.4,75.1c-0.3,0-0.7,0-1.2,0c-0.5,0-0.9,0.1-1.3,0.2c-0.4,0.1-0.8,0.3-1.1,0.6c-0.3,0.3-0.4,0.6-0.4,1.1
				c0,0.5,0.2,0.9,0.6,1.1c0.4,0.2,0.9,0.4,1.3,0.4c0.4,0,0.8-0.1,1.2-0.2s0.7-0.3,1-0.5c0.3-0.2,0.5-0.5,0.7-0.8s0.3-0.7,0.3-1.1
				v-0.9H144.4z"/>
			<path class="st1" d="M160.7,70.9h-3.6v4.4c0,0.4,0,0.7,0.1,1c0,0.3,0.1,0.6,0.2,0.8s0.3,0.4,0.6,0.5c0.3,0.1,0.6,0.2,1,0.2
				c0.2,0,0.5,0,0.9-0.1s0.6-0.1,0.8-0.3v3.4c-0.5,0.2-0.9,0.3-1.4,0.3c-0.5,0.1-1,0.1-1.4,0.1c-0.7,0-1.3-0.1-1.9-0.2
				c-0.6-0.1-1.1-0.4-1.5-0.7c-0.4-0.3-0.8-0.7-1-1.2s-0.4-1.1-0.4-1.8v-6.3h-2.6v-3.3h2.6v-3.9h4.1v3.9h3.6V70.9z"/>
			<path class="st1" d="M170.9,60.3h4.1v20.6h-4.1V60.3z"/>
			<path class="st1" d="M190.4,78.6c-0.7,0.8-1.5,1.5-2.5,1.9c-1,0.5-2,0.7-3.1,0.7c-1,0-2-0.2-2.9-0.5c-0.9-0.3-1.7-0.8-2.3-1.4
				c-0.7-0.6-1.2-1.3-1.6-2.2c-0.4-0.9-0.6-1.8-0.6-2.9s0.2-2,0.6-2.9c0.4-0.9,0.9-1.6,1.6-2.2c0.7-0.6,1.4-1.1,2.3-1.4
				c0.9-0.3,1.9-0.5,2.9-0.5c0.9,0,1.8,0.2,2.6,0.5s1.4,0.8,2,1.4s0.9,1.3,1.2,2.2s0.4,1.8,0.4,2.9v1.3h-9.5
				c0.2,0.8,0.5,1.4,1.1,1.9c0.5,0.5,1.2,0.7,2,0.7c0.7,0,1.2-0.1,1.7-0.4c0.5-0.3,0.9-0.7,1.2-1.2L190.4,78.6z M186.9,72.8
				c0-0.7-0.2-1.3-0.7-1.8c-0.5-0.5-1.1-0.7-1.8-0.7c-0.5,0-0.9,0.1-1.2,0.2c-0.3,0.1-0.6,0.3-0.9,0.6c-0.2,0.2-0.4,0.5-0.6,0.8
				c-0.1,0.3-0.2,0.6-0.2,0.9H186.9z"/>
			<path class="st1" d="M201.8,79.2L201.8,79.2c-0.5,0.7-1.1,1.2-1.9,1.5c-0.8,0.3-1.5,0.5-2.4,0.5c-0.6,0-1.2-0.1-1.8-0.3
				c-0.6-0.2-1.1-0.4-1.5-0.8c-0.4-0.3-0.8-0.8-1-1.3s-0.4-1.1-0.4-1.8c0-0.8,0.1-1.4,0.4-1.9c0.3-0.5,0.7-1,1.1-1.3
				c0.5-0.3,1-0.6,1.6-0.8c0.6-0.2,1.3-0.3,1.9-0.4c0.7-0.1,1.3-0.1,2-0.2c0.7,0,1.3,0,1.8,0c0-0.7-0.3-1.3-0.8-1.7
				c-0.5-0.4-1.1-0.6-1.8-0.6c-0.7,0-1.3,0.1-1.8,0.4c-0.6,0.3-1,0.7-1.5,1.2l-2.2-2.2c0.8-0.7,1.6-1.2,2.7-1.6
				c1-0.4,2.1-0.5,3.2-0.5c1.2,0,2.2,0.1,2.9,0.4c0.8,0.3,1.4,0.7,1.8,1.3c0.5,0.6,0.8,1.3,1,2.1c0.2,0.8,0.3,1.8,0.3,2.9v6.7h-3.8
				V79.2z M200.8,75.1c-0.3,0-0.7,0-1.2,0c-0.5,0-0.9,0.1-1.3,0.2s-0.8,0.3-1.1,0.6c-0.3,0.3-0.4,0.6-0.4,1.1c0,0.5,0.2,0.9,0.6,1.1
				c0.4,0.2,0.9,0.4,1.3,0.4c0.4,0,0.8-0.1,1.2-0.2c0.4-0.1,0.7-0.3,1-0.5c0.3-0.2,0.5-0.5,0.7-0.8c0.2-0.3,0.3-0.7,0.3-1.1v-0.9
				H200.8z"/>
			<path class="st1" d="M215.6,71.5c-0.6-0.7-1.4-1.1-2.4-1.1c-0.3,0-0.7,0.1-1,0.2s-0.5,0.4-0.5,0.8c0,0.3,0.2,0.6,0.5,0.7
				c0.3,0.2,0.8,0.3,1.3,0.4c0.5,0.1,1.1,0.2,1.7,0.4c0.6,0.1,1.1,0.3,1.7,0.6s0.9,0.7,1.3,1.2c0.3,0.5,0.5,1.2,0.5,2
				c0,0.9-0.2,1.6-0.6,2.1c-0.4,0.6-0.8,1-1.4,1.3c-0.6,0.3-1.2,0.6-2,0.7c-0.7,0.1-1.4,0.2-2.1,0.2c-0.9,0-1.9-0.1-2.8-0.4
				c-0.9-0.3-1.7-0.7-2.4-1.4l2.5-2.7c0.4,0.5,0.8,0.8,1.3,1.1s1,0.4,1.6,0.4c0.5,0,0.9-0.1,1.3-0.2c0.4-0.1,0.6-0.4,0.6-0.7
				c0-0.3-0.2-0.6-0.5-0.8s-0.8-0.3-1.3-0.4c-0.5-0.1-1.1-0.2-1.7-0.4c-0.6-0.1-1.1-0.3-1.7-0.6c-0.5-0.3-0.9-0.7-1.3-1.2
				c-0.3-0.5-0.5-1.2-0.5-2c0-0.8,0.2-1.4,0.5-2c0.3-0.6,0.7-1,1.3-1.4c0.5-0.4,1.1-0.6,1.8-0.8c0.7-0.2,1.4-0.3,2-0.3
				c0.9,0,1.7,0.1,2.6,0.4c0.9,0.3,1.6,0.7,2.3,1.4L215.6,71.5z"/>
			<path class="st1" d="M229.7,70.9h-3.6v4.4c0,0.4,0,0.7,0.1,1c0,0.3,0.1,0.6,0.2,0.8s0.3,0.4,0.6,0.5c0.3,0.1,0.6,0.2,1,0.2
				c0.2,0,0.5,0,0.9-0.1s0.6-0.1,0.8-0.3v3.4c-0.5,0.2-0.9,0.3-1.4,0.3s-1,0.1-1.4,0.1c-0.7,0-1.3-0.1-1.9-0.2
				c-0.6-0.1-1.1-0.4-1.5-0.7c-0.4-0.3-0.8-0.7-1-1.2c-0.2-0.5-0.4-1.1-0.4-1.8v-6.3h-2.6v-3.3h2.6v-3.9h4.1v3.9h3.6V70.9z"/>
		</g>
		<g>
			<g>
				<path class="st1" d="M162.4,192.8l-2.5-0.9l11.5-27.7l2.5,0.9L162.4,192.8z"/>
				<path class="st1" d="M193.4,191.1c0,1.3-0.2,2.5-0.7,3.5c-0.4,1.1-1.1,2-1.9,2.8c-0.8,0.8-1.8,1.4-3,1.8
					c-1.2,0.4-2.4,0.6-3.8,0.6c-1.6,0-3.1-0.2-4.5-0.7c-1.4-0.5-2.6-1.2-3.9-2.4l2.2-2.7c0.8,0.9,1.8,1.6,2.7,2.1s2.1,0.7,3.3,0.7
					c1.2,0,2.2-0.2,3-0.5s1.4-0.8,1.9-1.3c0.5-0.6,0.8-1.2,1-1.9s0.3-1.4,0.3-2.1v-2.5h-0.1c-0.6,1-1.5,1.8-2.5,2.3
					c-1.1,0.5-2.2,0.7-3.4,0.7c-1.2,0-2.4-0.2-3.5-0.7c-1.1-0.4-2-1.1-2.8-1.8c-0.8-0.8-1.4-1.7-1.8-2.8c-0.4-1.1-0.6-2.2-0.6-3.5
					c0-1.2,0.2-2.4,0.6-3.5c0.4-1.1,1-2,1.7-2.9c0.8-0.8,1.7-1.5,2.7-1.9c1.1-0.5,2.3-0.7,3.6-0.7c1.2,0,2.3,0.3,3.4,0.8
					c1.1,0.5,1.9,1.2,2.6,2.1h0.1v-2.4h3.2V191.1z M184.6,176.7c-0.9,0-1.6,0.1-2.3,0.4c-0.7,0.3-1.3,0.7-1.8,1.2
					c-0.5,0.5-0.9,1.1-1.1,1.9s-0.4,1.5-0.4,2.4c0,1.7,0.5,3.1,1.5,4.2s2.4,1.6,4.1,1.6c1.7,0,3.1-0.5,4.1-1.6s1.5-2.4,1.5-4.2
					c0-0.9-0.1-1.7-0.4-2.4c-0.3-0.7-0.6-1.4-1.1-1.9c-0.5-0.5-1.1-0.9-1.8-1.2C186.2,176.9,185.4,176.7,184.6,176.7z"/>
				<path class="st1" d="M198.4,176.2c0.9-0.8,2-1.5,3.2-1.9c1.2-0.4,2.4-0.6,3.6-0.6c1.2,0,2.3,0.2,3.2,0.5
					c0.9,0.3,1.6,0.7,2.2,1.3c0.6,0.5,1,1.1,1.3,1.8c0.3,0.7,0.4,1.4,0.4,2.1v8.7c0,0.6,0,1.2,0,1.7c0,0.5,0.1,1,0.1,1.4h-2.9
					c-0.1-0.9-0.1-1.7-0.1-2.6h-0.1c-0.7,1.1-1.6,1.9-2.6,2.3c-1,0.5-2.1,0.7-3.4,0.7c-0.8,0-1.5-0.1-2.3-0.3
					c-0.7-0.2-1.3-0.5-1.9-1c-0.5-0.4-1-1-1.3-1.6c-0.3-0.6-0.5-1.4-0.5-2.2c0-1.1,0.2-2,0.7-2.8c0.5-0.7,1.2-1.3,2-1.8
					c0.9-0.5,1.8-0.8,3-1c1.1-0.2,2.4-0.3,3.7-0.3h2.4v-0.7c0-0.4-0.1-0.9-0.3-1.3c-0.2-0.4-0.4-0.8-0.8-1.2s-0.8-0.6-1.3-0.8
					s-1.1-0.3-1.8-0.3c-0.6,0-1.2,0.1-1.6,0.2c-0.5,0.1-0.9,0.3-1.3,0.4c-0.4,0.2-0.7,0.4-1,0.6c-0.3,0.2-0.6,0.5-0.9,0.7
					L198.4,176.2z M207.5,183c-0.8,0-1.6,0-2.4,0.1s-1.5,0.2-2.2,0.5c-0.7,0.2-1.2,0.6-1.6,1c-0.4,0.4-0.6,1-0.6,1.7
					c0,1,0.3,1.7,1,2.1c0.7,0.4,1.6,0.6,2.7,0.6c0.9,0,1.6-0.1,2.3-0.5c0.6-0.3,1.1-0.7,1.5-1.2c0.4-0.5,0.7-1,0.8-1.6
					s0.3-1.2,0.3-1.7V183H207.5z"/>
				<path class="st1" d="M217.2,164h3.2v27.2h-3.2V164z"/>
			</g>
		</g>
	</g>
</g>
</svg>
