<?xml version="1.0" encoding="utf-8"?>
<!-- Generator: Adobe Illustrator 26.2.1, SVG Export Plug-In . SVG Version: 6.00 Build 0)  -->
<svg version="1.1" id="Layer_1" xmlns="http://www.w3.org/2000/svg" xmlns:xlink="http://www.w3.org/1999/xlink" x="0px" y="0px"
	 viewBox="0 0 30 30" style="enable-background:new 0 0 30 30;" xml:space="preserve">
<style type="text/css">
	.st0{fill:#050606;}
</style>
<g>
	<path class="st0" d="M15,11.6L15,11.6c-1.9,0-3.5,1.6-3.5,3.4c0,1.9,1.6,3.5,3.4,3.5h0c1.9,0,3.4-1.6,3.4-3.5
		C18.5,13.1,16.9,11.6,15,11.6z"/>
	<path class="st0" d="M15,0C6.7,0,0,6.7,0,15c0,8.3,6.7,15,15,15s15-6.7,15-15C30,6.7,23.3,0,15,0z M24.6,19.4
		c0,2.8-2.3,5.2-5.2,5.2h-8.8c-2.8,0-5.2-2.3-5.2-5.2v-8.8c0-2.8,2.3-5.2,5.2-5.2h8.8c2.8,0,5.2,2.3,5.2,5.2V19.4z"/>
	<path class="st0" d="M19.4,7.1h-8.7c-2,0-3.6,1.6-3.6,3.6v8.7c0,2,1.6,3.6,3.6,3.6h8.7c2,0,3.6-1.6,3.6-3.6v-8.7
		C22.9,8.7,21.3,7.1,19.4,7.1z M15,20.2L15,20.2c-2.9,0-5.2-2.3-5.2-5.2c0-2.8,2.3-5.2,5.2-5.2h0c2.8,0,5.2,2.4,5.2,5.2
		C20.2,17.9,17.9,20.2,15,20.2z M20.1,11c-0.6,0-1.1-0.5-1.1-1.1s0.5-1.1,1.1-1.1c0.6,0,1.1,0.5,1.1,1.1S20.7,11,20.1,11z"/>
</g>
</svg>
