<?xml version="1.0" encoding="utf-8"?>
<!-- Generator: Adobe Illustrator 26.2.1, SVG Export Plug-In . SVG Version: 6.00 Build 0)  -->
<svg version="1.1" id="Layer_1" xmlns="http://www.w3.org/2000/svg" xmlns:xlink="http://www.w3.org/1999/xlink" x="0px" y="0px"
	 viewBox="0 0 685.5 370.4" style="enable-background:new 0 0 685.5 370.4;" xml:space="preserve">
<style type="text/css">
	.st0{fill:#0E4C90;}
	.st1{fill:#3E9BC9;}
	.st2{fill:#FFFFFF;}
	.st3{fill:#003DA6;}
	.st4{fill:#E1251B;}
</style>
<g>
	<g>
		<path class="st0" d="M261.8,248.1c-3.3,0.6-6-0.7-7.3-3.8c-1.9-4.4-5.1-5.7-9.6-5.9c-24.8-1-49.6-2.2-74.4-3.3
			c-4.1-0.2-8.3-0.5-11.9,1.5c-13,7.1-27.8,9.3-41.6,14.1c-7.8,2.7-16.1,2.3-24.1,2.4c-20.8,0.4-41.6,0.2-62.4,0.2
			c-13.1,0-15.1-2.4-13.8-15.2c0.4-3.8,0.7-7.6,1.5-11.3c1-4.8,4.3-9.7,8.6-9.6c8.1,0.1,9.3-4.8,12-10.4c4.3-8.7,12.6-13.1,22-14.6
			c12.7-2,24.8-4.8,34.6-14.1c2.1-2,5.4-3,8.3-3.6c10.3-2,16.5-9.3,22.8-16.6c6.2-7.3,11.8-16.2,23.6-8.8c2.2,1.4,3.6-1.3,4.9-2.6
			c6.9-7.2,15.4-9.6,24.9-8.7c3.6,0.3,5.1-1,6.4-3.8c2.6-5.5,6.6-10,12.1-12.2c5.9-2.3,7.7-6.3,8.5-12c1.4-11.1,2.9-12.6,14.1-12.1
			c102.2,5,204.4,2.7,306.6,3.3c35.5,0.2,71-0.1,106.6-0.2c11.7,0,14,1.6,15.6,12.9c2.7,20.5,13.1,38.2,20,57.3
			c2.6,7.3,4.3,14.3,3.1,22.2c-1.6,10-2.2,20.1-3.1,30.2c-0.6,6.6-4.1,10.6-10,13.1c-7.2,3.1-14.2,6.8-21.6,9.5
			c-11.2,4.1-19.5,11.2-25.9,21.1c-4.5,7-10.3,13.2-14.9,20.2c-3.9,5.8-9,7.8-15,5.6c-20.9-7.6-39.5-1.4-55.6,10.9
			c-13.2,10-24.2,23.1-30.3,39.2c-6.9,18.3-7.7,18.8-27.2,16.6c-2-0.2-4.1-1-6-0.7c-16.2,2.4-26.9-5.7-37.3-17
			c-20.6-22.4-42.4-43.7-63.5-65.6c-3.9-4-7.9-6.3-13.8-6.7c-20.8-1.4-41.6-0.4-62.4-1.1c-12.2-0.4-13.2-1.4-15.3-13.5
			C270.1,250.6,268.7,245.7,261.8,248.1z M180.8,228.8c11,0,26.1-1.5,40.8,0.4c14.1,1.9,28.7-2.5,42.8,6.6
			c7.4,4.8,12.5,9.9,14.4,16.8c1.7,6.1,3.9,7.7,9.5,7.8c20.5,0,41.1,0.4,61.6,0.4c6.5,0,11.2,2.4,15.8,7.2
			c25,26.2,50.5,52.1,75.8,78c2,2,4,3.9,7.1,4c9.9,0.5,19.7,1,29.6,1.7c4.1,0.3,7-1.2,8-5.3c3.6-15.2,13.5-26.4,23.5-37.6
			c19.3-21.6,42.2-32.5,71.6-24.5c4.8,1.3,8.2,0.7,10.9-3.9c14.5-24.6,34.3-42.8,62.3-50.9c0.7-0.2,1.3-0.7,2.1-1
			c3.2-1.3,4.8-3.8,5.1-7c1.6-20.5,6.3-40.7-4.5-60.8c-7.4-13.9-14-28.8-15.3-45.1c-0.6-7.5-6.1-6.7-11.2-6.7
			c-133.1-1.1-266.3,2.9-399.3-2.9c-15.8-0.7-16.1-3.4-17.5,15.2c-0.2,2.6-0.1,6.4-3.9,6.3c-10.3-0.3-14.8,6.1-18.1,14.4
			c-1.9,4.7-5.6,8.4-10.6,5.9c-8.5-4.1-14.6-0.7-20.6,4.5c-2.9,2.5-5.5,5.2-8.4,7.7c-2.4,2.1-5.4,2.9-7.2-0.2
			c-4.8-8.8-7.9-2.4-10.8,1.2c-7.8,9.8-15.6,19.3-29.1,21.4c-1.7,0.3-3.7,0.8-4.9,1.9c-11,10.5-25,13.5-39.3,16.2
			c-8.5,1.5-15.4,5.8-16.6,16.2c-0.7,6.4-4,11-12,8.5c-3.7-1.2-5.8,1.3-6.6,4.6c-0.6,2.4-0.2,5.1-0.9,7.5c-1.9,7,1.4,8,7.5,7.9
			c19-0.3,38-0.4,57.1-0.1c19.7,0.3,38-5.3,55.9-12.1C155.7,229.2,165.4,223.9,180.8,228.8z"/>
		<path class="st1" d="M180.8,228.8c11,0,26.1-1.5,40.8,0.4c14.1,1.9,28.7-2.5,42.8,6.6c7.4,4.8,12.5,9.9,14.4,16.8
			c1.7,6.1,3.9,7.7,9.5,7.8c20.5,0,41.1,0.4,61.6,0.4c6.5,0,11.2,2.4,15.8,7.2c25,26.2,50.5,52.1,75.8,78c2,2,4,3.9,7.1,4
			c9.9,0.5,19.7,1,29.6,1.7c4.1,0.3,7-1.2,8-5.3c3.6-15.2,13.5-26.4,23.5-37.6c19.3-21.6,42.2-32.5,71.6-24.5
			c4.8,1.3,8.2,0.7,10.9-3.9c14.5-24.6,34.3-42.8,62.3-50.9c0.7-0.2,1.3-0.7,2.1-1c3.2-1.3,4.8-3.8,5.1-7
			c1.6-20.5,6.3-40.7-4.5-60.8c-7.4-13.9-14-28.8-15.3-45.1c-0.6-7.5-6.1-6.7-11.2-6.7c-133.1-1.1-266.3,2.9-399.3-2.9
			c-15.8-0.7-16.1-3.4-17.5,15.2c-0.2,2.6-0.1,6.4-3.9,6.3c-10.3-0.3-14.8,6.1-18.1,14.4c-1.9,4.7-5.6,8.4-10.6,5.9
			c-8.5-4.1-14.6-0.7-20.6,4.5c-2.9,2.5-5.5,5.2-8.4,7.7c-2.4,2.1-5.4,2.9-7.2-0.2c-4.8-8.8-7.9-2.4-10.8,1.2
			c-7.8,9.8-15.6,19.3-29.1,21.4c-1.7,0.3-3.7,0.8-4.9,1.9c-11,10.5-25,13.5-39.3,16.2c-8.5,1.5-15.4,5.8-16.6,16.2
			c-0.7,6.4-4,11-12,8.5c-3.7-1.2-5.8,1.3-6.6,4.6c-0.6,2.4-0.2,5.1-0.9,7.5c-1.9,7,1.4,8,7.5,7.9c19-0.3,38-0.4,57.1-0.1
			c19.7,0.3,38-5.3,55.9-12.1C155.7,229.2,165.4,223.9,180.8,228.8z"/>
	</g>
	<g>
		<g>
			<path class="st2" d="M465.6,158.8c-32.8,0-59.5-26.7-59.5-59.5c0-32.8,26.7-59.5,59.5-59.5s59.5,26.7,59.5,59.5
				C525.1,132.1,498.4,158.8,465.6,158.8z"/>
		</g>
		<g>
			<path class="st3" d="M466,7.7h-0.4c-50.5,0-91.6,41.1-91.6,91.6c0,27.7,14.2,49.3,29.9,70.8l61.5,83.9l61.8-83.9
				c15.8-21.5,29.9-43.1,29.9-70.8C557.2,48.9,516.3,7.9,466,7.7z M465.6,158.8c-32.8,0-59.5-26.7-59.5-59.5
				c0-32.8,26.7-59.5,59.5-59.5s59.5,26.7,59.5,59.5C525.1,132.1,498.4,158.8,465.6,158.8z"/>
		</g>
		<g>
			<path class="st4" d="M496.9,68.1h-24.3L470,81.3h19.2c2.2,0,2.2,1.2,1.8,2.4c-0.2,0.5-0.9,2.4-1,2.7c-0.6,1.1-1.2,1.2-2.4,1.2
				h-18.8l-7.2,40.6h16.7l5.3-27c0,0,8.9-0.3,15.2-1.7c6.3-1.4,8.6-6.1,10.3-12.4C510.7,80.7,513.9,68.1,496.9,68.1"/>
			<path class="st4" d="M464.5,81.4l2.2-13.2h-30.9c-4.3,0-6.8,2.6-8.2,13.2L464.5,81.4z"/>
			<path class="st4" d="M458.3,115.9h-18.8c-2.8,0-2.4-1.1-1.4-6c0.8-4,2.4-8.8,2.4-8.8h20.9l2.2-13.3h-37.2
				c-0.7,3.6-4.7,25.9-5.2,28.8c-0.5,3.1-1.4,11.8,8.6,11.8h26.6L458.3,115.9z"/>
		</g>
	</g>
	<g>
		<g>
			<path class="st2" d="M559.4,223.7c-12.5,0-22.7-10.2-22.7-22.7c0-12.5,10.2-22.7,22.7-22.7s22.7,10.2,22.7,22.7
				C582.1,213.5,571.9,223.7,559.4,223.7z"/>
		</g>
		<g>
			<path class="st3" d="M559.6,166.2h-0.1c-19.2,0-34.9,15.7-34.9,34.9c0,10.5,5.4,18.8,11.4,27l23.4,32l23.5-32
				c6-8.2,11.4-16.4,11.4-27C594.3,181.9,578.7,166.2,559.6,166.2z M559.4,223.7c-12.5,0-22.7-10.2-22.7-22.7
				c0-12.5,10.2-22.7,22.7-22.7s22.7,10.2,22.7,22.7C582.1,213.5,571.9,223.7,559.4,223.7z"/>
		</g>
		<g>
			<path class="st4" d="M571.4,189.2h-9.3l-1,5h7.3c0.8,0,0.8,0.5,0.7,0.9c-0.1,0.2-0.3,0.9-0.4,1c-0.2,0.4-0.4,0.5-0.9,0.5h-7.2
				l-2.7,15.5h6.3l2-10.3c0,0,3.4-0.1,5.8-0.6c2.4-0.5,3.3-2.3,3.9-4.7C576.6,194,577.8,189.2,571.4,189.2"/>
			<path class="st4" d="M559,194.2l0.8-5h-11.8c-1.7,0-2.6,1-3.1,5L559,194.2z"/>
			<path class="st4" d="M556.6,207.4h-7.2c-1.1,0-0.9-0.4-0.5-2.3c0.3-1.5,0.9-3.4,0.9-3.4h7.9l0.8-5.1h-14.2c-0.2,1.4-1.8,9.9-2,11
				c-0.2,1.2-0.5,4.5,3.3,4.5h10.1L556.6,207.4z"/>
		</g>
	</g>
	<g>
		<g>
			<path class="st2" d="M344.4,190.3c-12.5,0-22.7-10.2-22.7-22.7c0-12.5,10.2-22.7,22.7-22.7c12.5,0,22.7,10.2,22.7,22.7
				C367.1,180.2,356.9,190.3,344.4,190.3z"/>
		</g>
		<g>
			<path class="st3" d="M344.5,132.8h-0.1c-19.2,0-34.9,15.7-34.9,34.9c0,10.5,5.4,18.8,11.4,27l23.4,32l23.5-32
				c6-8.2,11.4-16.4,11.4-27C379.3,148.5,363.7,132.9,344.5,132.8z M344.4,190.3c-12.5,0-22.7-10.2-22.7-22.7
				c0-12.5,10.2-22.7,22.7-22.7c12.5,0,22.7,10.2,22.7,22.7C367.1,180.2,356.9,190.3,344.4,190.3z"/>
		</g>
		<g>
			<path class="st4" d="M356.3,155.8h-9.3l-1,5h7.3c0.8,0,0.8,0.5,0.7,0.9c-0.1,0.2-0.3,0.9-0.4,1c-0.2,0.4-0.4,0.5-0.9,0.5h-7.2
				l-2.7,15.5h6.3l2-10.3c0,0,3.4-0.1,5.8-0.6c2.4-0.5,3.3-2.3,3.9-4.7C361.6,160.6,362.8,155.8,356.3,155.8"/>
			<path class="st4" d="M344,160.9l0.8-5H333c-1.7,0-2.6,1-3.1,5L344,160.9z"/>
			<path class="st4" d="M341.6,174h-7.2c-1.1,0-0.9-0.4-0.5-2.3c0.3-1.5,0.9-3.4,0.9-3.4h7.9l0.8-5.1h-14.2c-0.2,1.4-1.8,9.9-2,11
				c-0.2,1.2-0.5,4.5,3.3,4.5h10.1L341.6,174z"/>
		</g>
	</g>
	<g>
		<g>
			<path class="st2" d="M395.2,243.3c-10.4,0-18.9-8.5-18.9-18.9c0-10.4,8.5-18.9,18.9-18.9s18.9,8.5,18.9,18.9
				C414.1,234.8,405.6,243.3,395.2,243.3z"/>
		</g>
		<g>
			<path class="st3" d="M395.3,195.3h-0.1c-16,0-29.1,13-29.1,29.1c0,8.8,4.5,15.6,9.5,22.5l19.5,26.6l19.6-26.6
				c5-6.8,9.5-13.7,9.5-22.5C424.3,208.4,411.3,195.4,395.3,195.3z M395.2,243.3c-10.4,0-18.9-8.5-18.9-18.9
				c0-10.4,8.5-18.9,18.9-18.9s18.9,8.5,18.9,18.9C414.1,234.8,405.6,243.3,395.2,243.3z"/>
		</g>
		<g>
			<path class="st4" d="M405.2,214.5h-7.7l-0.8,4.2h6.1c0.7,0,0.7,0.4,0.6,0.8c-0.1,0.2-0.3,0.8-0.3,0.9c-0.2,0.3-0.4,0.4-0.7,0.4
				h-6l-2.3,12.9h5.3l1.7-8.6c0,0,2.8-0.1,4.8-0.5c2-0.5,2.7-1.9,3.3-3.9C409.6,218.5,410.5,214.5,405.2,214.5"/>
			<path class="st4" d="M394.9,218.7l0.7-4.2h-9.8c-1.4,0-2.1,0.8-2.6,4.2L394.9,218.7z"/>
			<path class="st4" d="M392.9,229.7h-6c-0.9,0-0.8-0.3-0.5-1.9c0.2-1.3,0.8-2.8,0.8-2.8h6.6l0.7-4.2h-11.8
				c-0.2,1.1-1.5,8.2-1.6,9.2c-0.2,1-0.5,3.7,2.7,3.7h8.4L392.9,229.7z"/>
		</g>
	</g>
	<g>
		<g>
			<path class="st2" d="M478.1,301.6c-8.5,0-15.4-6.9-15.4-15.4c0-8.5,6.9-15.4,15.4-15.4c8.5,0,15.4,6.9,15.4,15.4
				C493.5,294.7,486.6,301.6,478.1,301.6z"/>
		</g>
		<g>
			<path class="st3" d="M478.2,262.4L478.2,262.4c-13.2,0-23.8,10.7-23.8,23.8c0,7.2,3.7,12.8,7.8,18.4l16,21.8l16-21.8
				c4.1-5.6,7.8-11.2,7.8-18.4C501.9,273.1,491.2,262.5,478.2,262.4z M478.1,301.6c-8.5,0-15.4-6.9-15.4-15.4
				c0-8.5,6.9-15.4,15.4-15.4c8.5,0,15.4,6.9,15.4,15.4C493.5,294.7,486.6,301.6,478.1,301.6z"/>
		</g>
		<g>
			<path class="st4" d="M486.2,278.1h-6.3l-0.7,3.4h5c0.6,0,0.6,0.3,0.5,0.6c0,0.1-0.2,0.6-0.3,0.7c-0.1,0.3-0.3,0.3-0.6,0.3h-4.9
				l-1.9,10.5h4.3l1.4-7c0,0,2.3-0.1,3.9-0.4c1.6-0.4,2.2-1.6,2.7-3.2C489.8,281.4,490.6,278.1,486.2,278.1"/>
			<path class="st4" d="M477.8,281.5l0.6-3.4h-8c-1.1,0-1.8,0.7-2.1,3.4L477.8,281.5z"/>
			<path class="st4" d="M476.2,290.5h-4.9c-0.7,0-0.6-0.3-0.4-1.6c0.2-1,0.6-2.3,0.6-2.3h5.4l0.6-3.5h-9.7c-0.2,0.9-1.2,6.7-1.3,7.5
				c-0.1,0.8-0.4,3.1,2.2,3.1h6.9L476.2,290.5z"/>
		</g>
	</g>
	<g>
		<g>
			<path class="st2" d="M604.9,131.2c-9.5,0-17.3-7.7-17.3-17.3c0-9.5,7.7-17.3,17.3-17.3c9.5,0,17.3,7.7,17.3,17.3
				C622.1,123.4,614.4,131.2,604.9,131.2z"/>
		</g>
		<g>
			<path class="st3" d="M605,87.3h-0.1c-14.6,0-26.6,11.9-26.6,26.6c0,8,4.1,14.3,8.7,20.5l17.9,24.3l17.9-24.3
				c4.6-6.2,8.7-12.5,8.7-20.5C631.4,99.3,619.6,87.4,605,87.3z M604.9,131.2c-9.5,0-17.3-7.7-17.3-17.3c0-9.5,7.7-17.3,17.3-17.3
				c9.5,0,17.3,7.7,17.3,17.3C622.1,123.4,614.4,131.2,604.9,131.2z"/>
		</g>
		<g>
			<path class="st4" d="M613.9,104.9h-7l-0.8,3.8h5.6c0.6,0,0.6,0.3,0.5,0.7c0,0.2-0.3,0.7-0.3,0.8c-0.2,0.3-0.3,0.4-0.7,0.4h-5.5
				l-2.1,11.8h4.8l1.5-7.8c0,0,2.6-0.1,4.4-0.5c1.8-0.4,2.5-1.8,3-3.6C618,108.5,618.9,104.9,613.9,104.9"/>
			<path class="st4" d="M604.5,108.7l0.6-3.8h-9c-1.3,0-2,0.8-2.4,3.8L604.5,108.7z"/>
			<path class="st4" d="M602.7,118.7h-5.5c-0.8,0-0.7-0.3-0.4-1.7c0.2-1.2,0.7-2.6,0.7-2.6h6.1l0.6-3.9h-10.8
				c-0.2,1-1.4,7.5-1.5,8.4c-0.1,0.9-0.4,3.4,2.5,3.4h7.7L602.7,118.7z"/>
		</g>
	</g>
</g>
</svg>
