<?xml version="1.0" encoding="utf-8"?>
<!-- Generator: Adobe Illustrator 26.2.1, SVG Export Plug-In . SVG Version: 6.00 Build 0)  -->
<svg version="1.1" id="Layer_1" xmlns="http://www.w3.org/2000/svg" xmlns:xlink="http://www.w3.org/1999/xlink" x="0px" y="0px"
	 viewBox="0 0 671.8 364.5" style="enable-background:new 0 0 671.8 364.5;" xml:space="preserve">
<style type="text/css">
	.st0{fill:#0E4C90;}
	.st1{fill:#3E9BC9;}
	.st2{fill:#003DA6;}
	.st3{fill:#FFFFFF;}
	.st4{fill:#FFE600;}
	.st5{fill:#E1251B;}
</style>
<g>
	<path class="st0" d="M256,246.1c-3.3,0.6-6-0.7-7.3-3.8c-1.9-4.4-5.1-5.7-9.6-5.9c-24.8-1-49.6-2.2-74.4-3.3
		c-4.1-0.2-8.3-0.5-11.9,1.5c-13,7.1-27.8,9.3-41.6,14.1c-7.8,2.7-16.1,2.3-24.1,2.4c-20.8,0.4-41.6,0.2-62.4,0.2
		c-13.1,0-15.1-2.4-13.8-15.2c0.4-3.8,0.7-7.6,1.5-11.3c1-4.8,4.3-9.7,8.6-9.6c8.1,0.1,9.3-4.8,12-10.4c4.3-8.7,12.6-13.1,22-14.6
		c12.7-2,24.8-4.8,34.6-14.1c2.1-2,5.4-3,8.3-3.6c10.3-2,16.5-9.3,22.8-16.6c6.2-7.3,11.8-16.2,23.6-8.8c2.2,1.4,3.6-1.3,4.9-2.6
		c6.9-7.2,15.4-9.6,24.9-8.7c3.6,0.3,5.1-1,6.4-3.8c2.6-5.5,6.6-10,12.1-12.2c5.9-2.3,7.7-6.3,8.5-12c1.4-11.1,2.9-12.6,14.1-12.1
		c102.2,5,204.4,2.7,306.6,3.3c35.5,0.2,71-0.1,106.6-0.2c11.7,0,14,1.6,15.6,12.9c2.7,20.5,13.1,38.2,20,57.3
		c2.6,7.3,4.3,14.3,3.1,22.2c-1.6,10-2.2,20.1-3.1,30.2c-0.6,6.6-4.1,10.6-10,13.1c-7.2,3.1-14.2,6.8-21.6,9.5
		c-11.2,4.1-19.5,11.2-25.9,21.1c-4.5,7-10.3,13.2-14.9,20.2c-3.9,5.8-9,7.8-15,5.6c-20.9-7.6-39.5-1.4-55.6,10.9
		c-13.2,10-24.2,23.1-30.3,39.2c-6.9,18.3-7.7,18.8-27.2,16.6c-2-0.2-4.1-1-6-0.7c-16.2,2.4-26.9-5.7-37.3-17
		c-20.6-22.4-42.4-43.7-63.5-65.6c-3.9-4-7.9-6.3-13.8-6.7c-20.8-1.4-41.6-0.4-62.4-1.1c-12.2-0.4-13.2-1.4-15.3-13.5
		C264.2,248.6,262.8,243.8,256,246.1z M174.9,226.9c11,0,26.1-1.5,40.8,0.4c14.1,1.9,28.7-2.5,42.8,6.6c7.4,4.8,12.5,9.9,14.4,16.8
		c1.7,6.1,3.9,7.7,9.5,7.8c20.5,0,41.1,0.4,61.6,0.4c6.5,0,11.2,2.4,15.8,7.2c25,26.2,50.5,52.1,75.8,78c2,2,4,3.9,7.1,4
		c9.9,0.5,19.7,1,29.6,1.7c4.1,0.3,7-1.2,8-5.3c3.6-15.2,13.5-26.4,23.5-37.6c19.3-21.6,42.2-32.5,71.6-24.5
		c4.8,1.3,8.2,0.7,10.9-3.9c14.5-24.6,34.3-42.8,62.3-50.9c0.7-0.2,1.3-0.7,2.1-1c3.2-1.3,4.8-3.8,5.1-7c1.6-20.5,6.3-40.7-4.5-60.8
		c-7.4-13.9-14-28.8-15.3-45.1c-0.6-7.5-6.1-6.7-11.2-6.7c-133.1-1.1-266.3,2.9-399.3-2.9c-15.8-0.7-16.1-3.4-17.5,15.2
		c-0.2,2.6-0.1,6.4-3.9,6.3c-10.3-0.3-14.8,6.1-18.1,14.4c-1.9,4.7-5.6,8.4-10.6,5.9c-8.5-4.1-14.6-0.7-20.6,4.5
		c-2.9,2.5-5.5,5.2-8.4,7.7c-2.4,2.1-5.4,2.9-7.2-0.2c-4.8-8.8-7.9-2.4-10.8,1.2c-7.8,9.8-15.6,19.3-29.1,21.4
		c-1.7,0.3-3.7,0.8-4.9,1.9c-11,10.5-25,13.5-39.3,16.2c-8.5,1.5-15.4,5.8-16.6,16.2c-0.7,6.4-4,11-12,8.5c-3.7-1.2-5.8,1.3-6.6,4.6
		c-0.6,2.4-0.2,5.1-0.9,7.5c-1.9,7,1.4,8,7.5,7.9c19-0.3,38-0.4,57.1-0.1c19.7,0.3,38-5.3,55.9-12.1
		C149.8,227.2,159.5,222,174.9,226.9z"/>
	<path class="st1" d="M174.9,226.9c11,0,26.1-1.5,40.8,0.4c14.1,1.9,28.7-2.5,42.8,6.6c7.4,4.8,12.5,9.9,14.4,16.8
		c1.7,6.1,3.9,7.7,9.5,7.8c20.5,0,41.1,0.4,61.6,0.4c6.5,0,11.2,2.4,15.8,7.2c25,26.2,50.5,52.1,75.8,78c2,2,4,3.9,7.1,4
		c9.9,0.5,19.7,1,29.6,1.7c4.1,0.3,7-1.2,8-5.3c3.6-15.2,13.5-26.4,23.5-37.6c19.3-21.6,42.2-32.5,71.6-24.5
		c4.8,1.3,8.2,0.7,10.9-3.9c14.5-24.6,34.3-42.8,62.3-50.9c0.7-0.2,1.3-0.7,2.1-1c3.2-1.3,4.8-3.8,5.1-7c1.6-20.5,6.3-40.7-4.5-60.8
		c-7.4-13.9-14-28.8-15.3-45.1c-0.6-7.5-6.1-6.7-11.2-6.7c-133.1-1.1-266.3,2.9-399.3-2.9c-15.8-0.7-16.1-3.4-17.5,15.2
		c-0.2,2.6-0.1,6.4-3.9,6.3c-10.3-0.3-14.8,6.1-18.1,14.4c-1.9,4.7-5.6,8.4-10.6,5.9c-8.5-4.1-14.6-0.7-20.6,4.5
		c-2.9,2.5-5.5,5.2-8.4,7.7c-2.4,2.1-5.4,2.9-7.2-0.2c-4.8-8.8-7.9-2.4-10.8,1.2c-7.8,9.8-15.6,19.3-29.1,21.4
		c-1.7,0.3-3.7,0.8-4.9,1.9c-11,10.5-25,13.5-39.3,16.2c-8.5,1.5-15.4,5.8-16.6,16.2c-0.7,6.4-4,11-12,8.5c-3.7-1.2-5.8,1.3-6.6,4.6
		c-0.6,2.4-0.2,5.1-0.9,7.5c-1.9,7,1.4,8,7.5,7.9c19-0.3,38-0.4,57.1-0.1c19.7,0.3,38-5.3,55.9-12.1
		C149.8,227.2,159.5,222,174.9,226.9z"/>
</g>
<g>
	<g>
		<path class="st2" d="M460.1,5.7h-0.4c-50.5,0-91.6,41.1-91.6,91.6c0,27.7,14.2,49.3,29.9,70.8l61.5,83.9l61.8-83.9
			c15.8-21.5,29.9-43.1,29.9-70.8C551.3,46.9,510.4,5.9,460.1,5.7z M459.7,156.8c-32.8,0-59.5-26.7-59.5-59.5
			c0-32.8,26.7-59.5,59.5-59.5s59.5,26.7,59.5,59.5C519.2,130.1,492.5,156.8,459.7,156.8z"/>
	</g>
	<g>
		<g>
			<path class="st3" d="M459.7,160.8c-35,0-63.5-28.5-63.5-63.5c0-35,28.5-63.5,63.5-63.5s63.5,28.5,63.5,63.5
				C523.2,132.3,494.8,160.8,459.7,160.8z"/>
			<path class="st4" d="M459.7,37.8c32.8,0,59.5,26.7,59.5,59.5c0,32.8-26.7,59.5-59.5,59.5s-59.5-26.7-59.5-59.5
				C400.2,64.5,426.9,37.8,459.7,37.8 M459.7,29.8c-37.2,0-67.5,30.3-67.5,67.5c0,37.2,30.3,67.5,67.5,67.5s67.5-30.3,67.5-67.5
				C527.2,60.1,497,29.8,459.7,29.8L459.7,29.8z"/>
		</g>
	</g>
	<g>
		<path class="st5" d="M491.1,66.2h-24.3l-2.6,13.2h19.2c2.2,0,2.2,1.2,1.8,2.4c-0.2,0.5-0.9,2.4-1,2.7c-0.6,1.1-1.2,1.2-2.4,1.2
			h-18.8l-7.2,40.6h16.7l5.3-27c0,0,8.9-0.3,15.2-1.7c6.3-1.4,8.6-6.1,10.3-12.4C504.9,78.7,508,66.2,491.1,66.2"/>
		<path class="st5" d="M458.6,79.4l2.2-13.2h-30.9c-4.3,0-6.8,2.6-8.2,13.2L458.6,79.4z"/>
		<path class="st5" d="M452.4,113.9h-18.8c-2.8,0-2.4-1.1-1.4-6c0.8-4,2.4-8.8,2.4-8.8h20.9l2.2-13.3h-37.2
			c-0.7,3.6-4.7,25.9-5.2,28.8c-0.5,3.1-1.4,11.8,8.6,11.8h26.6L452.4,113.9z"/>
	</g>
</g>
<g>
	<g>
		<path class="st2" d="M598.8,85.5h-0.1c-14.6,0-26.6,11.9-26.6,26.6c0,8,4.1,14.3,8.7,20.5l17.8,24.3l17.9-24.3
			c4.6-6.2,8.7-12.5,8.7-20.5C625.2,97.5,613.4,85.6,598.8,85.5z M598.7,129.4c-9.5,0-17.3-7.7-17.3-17.3c0-9.5,7.7-17.3,17.3-17.3
			c9.5,0,17.3,7.7,17.3,17.3C615.9,121.6,608.2,129.4,598.7,129.4z"/>
	</g>
	<g>
		<g>
			<path class="st3" d="M598.7,130.5c-10.2,0-18.4-8.3-18.4-18.4c0-10.2,8.3-18.4,18.4-18.4s18.4,8.3,18.4,18.4
				C617.1,122.3,608.8,130.5,598.7,130.5z"/>
			<path class="st4" d="M598.7,94.8c9.5,0,17.3,7.7,17.3,17.3c0,9.5-7.7,17.3-17.3,17.3s-17.3-7.7-17.3-17.3
				C581.4,102.6,589.1,94.8,598.7,94.8 M598.7,92.5c-10.8,0-19.6,8.8-19.6,19.6c0,10.8,8.8,19.6,19.6,19.6
				c10.8,0,19.6-8.8,19.6-19.6C618.2,101.3,609.5,92.5,598.7,92.5L598.7,92.5z"/>
		</g>
	</g>
	<g>
		<path class="st5" d="M607.7,103.1h-7l-0.8,3.8h5.6c0.6,0,0.6,0.3,0.5,0.7c0,0.2-0.3,0.7-0.3,0.8c-0.2,0.3-0.3,0.4-0.7,0.4h-5.5
			l-2.1,11.8h4.8l1.5-7.8c0,0,2.6-0.1,4.4-0.5c1.8-0.4,2.5-1.8,3-3.6C611.8,106.7,612.7,103.1,607.7,103.1"/>
		<path class="st5" d="M598.3,106.9l0.6-3.8h-9c-1.3,0-2,0.8-2.4,3.8L598.3,106.9z"/>
		<path class="st5" d="M596.5,116.9h-5.5c-0.8,0-0.7-0.3-0.4-1.7c0.2-1.2,0.7-2.6,0.7-2.6h6.1l0.6-3.9h-10.8c-0.2,1-1.4,7.5-1.5,8.4
			c-0.1,0.9-0.4,3.4,2.5,3.4h7.7L596.5,116.9z"/>
	</g>
</g>
<g>
	<g>
		<path class="st2" d="M472.1,260.2L472.1,260.2c-13.2,0-23.8,10.7-23.8,23.8c0,7.2,3.7,12.8,7.8,18.4l16,21.8l16-21.8
			c4.1-5.6,7.8-11.2,7.8-18.4C495.8,270.9,485.2,260.2,472.1,260.2z M472,299.4c-8.5,0-15.4-6.9-15.4-15.4c0-8.5,6.9-15.4,15.4-15.4
			c8.5,0,15.4,6.9,15.4,15.4C487.5,292.4,480.6,299.4,472,299.4z"/>
	</g>
	<g>
		<g>
			<circle class="st3" cx="472" cy="283.9" r="16.5"/>
			<path class="st4" d="M472,268.5c8.5,0,15.4,6.9,15.4,15.4c0,8.5-6.9,15.4-15.4,15.4s-15.4-6.9-15.4-15.4
				C456.6,275.4,463.5,268.5,472,268.5 M472,266.4c-9.7,0-17.5,7.9-17.5,17.5c0,9.7,7.9,17.5,17.5,17.5s17.5-7.9,17.5-17.5
				C489.6,274.3,481.7,266.4,472,266.4L472,266.4z"/>
		</g>
	</g>
	<g>
		<path class="st5" d="M480.2,275.8h-6.3l-0.7,3.4h5c0.6,0,0.6,0.3,0.5,0.6c0,0.1-0.2,0.6-0.3,0.7c-0.1,0.3-0.3,0.3-0.6,0.3h-4.9
			l-1.9,10.5h4.3l1.4-7c0,0,2.3-0.1,3.9-0.4c1.6-0.4,2.2-1.6,2.7-3.2C483.8,279.1,484.6,275.8,480.2,275.8"/>
		<path class="st5" d="M471.8,279.3l0.6-3.4h-8c-1.1,0-1.8,0.7-2.1,3.4L471.8,279.3z"/>
		<path class="st5" d="M470.1,288.2h-4.9c-0.7,0-0.6-0.3-0.4-1.6c0.2-1,0.6-2.3,0.6-2.3h5.4l0.6-3.5h-9.7c-0.2,0.9-1.2,6.7-1.3,7.5
			c-0.1,0.8-0.4,3.1,2.2,3.1h6.9L470.1,288.2z"/>
	</g>
</g>
<g>
	<g>
		<path class="st2" d="M553.6,164.7h-0.1c-19.2,0-34.8,15.6-34.8,34.8c0,10.5,5.4,18.7,11.4,26.9l23.4,31.9l23.5-31.9
			c6-8.2,11.4-16.4,11.4-26.9C588.3,180.4,572.7,164.8,553.6,164.7z M553.5,222.1c-12.5,0-22.6-10.1-22.6-22.6
			c0-12.5,10.1-22.6,22.6-22.6c12.5,0,22.6,10.1,22.6,22.6C576.1,211.9,566,222.1,553.5,222.1z"/>
	</g>
	<g>
		<g>
			<path class="st3" d="M553.5,223.6c-13.3,0-24.1-10.8-24.1-24.1c0-13.3,10.8-24.1,24.1-24.1s24.1,10.8,24.1,24.1
				C577.6,212.8,566.8,223.6,553.5,223.6z"/>
			<path class="st4" d="M553.5,176.9c12.5,0,22.6,10.1,22.6,22.6c0,12.5-10.1,22.6-22.6,22.6c-12.5,0-22.6-10.1-22.6-22.6
				C530.9,187,541,176.9,553.5,176.9 M553.5,173.9c-14.1,0-25.6,11.5-25.6,25.6c0,14.1,11.5,25.6,25.6,25.6s25.6-11.5,25.6-25.6
				C579.1,185.4,567.6,173.9,553.5,173.9L553.5,173.9z"/>
		</g>
	</g>
	<g>
		<path class="st5" d="M565.4,187.7h-9.2l-1,5h7.3c0.8,0,0.8,0.4,0.7,0.9c-0.1,0.2-0.3,0.9-0.4,1c-0.2,0.4-0.4,0.5-0.9,0.5h-7.2
			l-2.7,15.4h6.3l2-10.3c0,0,3.4-0.1,5.8-0.6c2.4-0.5,3.3-2.3,3.9-4.7C570.6,192.4,571.8,187.7,565.4,187.7"/>
		<path class="st5" d="M553.1,192.7l0.8-5h-11.7c-1.7,0-2.6,1-3.1,5L553.1,192.7z"/>
		<path class="st5" d="M550.7,205.8h-7.1c-1.1,0-0.9-0.4-0.5-2.3c0.3-1.5,0.9-3.3,0.9-3.3h7.9l0.8-5.1h-14.1
			c-0.2,1.4-1.8,9.9-2,10.9c-0.2,1.2-0.5,4.5,3.3,4.5h10.1L550.7,205.8z"/>
	</g>
</g>
<g>
	<g>
		<path class="st2" d="M338.3,130.8h-0.1c-19.2,0-34.8,15.6-34.8,34.8c0,10.5,5.4,18.7,11.4,26.9l23.4,31.9l23.5-31.9
			c6-8.2,11.4-16.4,11.4-26.9C372.9,146.5,357.4,130.9,338.3,130.8z M338.1,188.2c-12.5,0-22.6-10.1-22.6-22.6
			c0-12.5,10.1-22.6,22.6-22.6c12.5,0,22.6,10.1,22.6,22.6C360.7,178.1,350.6,188.2,338.1,188.2z"/>
	</g>
	<g>
		<g>
			<path class="st3" d="M338.1,189.7c-13.3,0-24.1-10.8-24.1-24.1c0-13.3,10.8-24.1,24.1-24.1s24.1,10.8,24.1,24.1
				C362.2,178.9,351.4,189.7,338.1,189.7z"/>
			<path class="st4" d="M338.1,143c12.5,0,22.6,10.1,22.6,22.6c0,12.5-10.1,22.6-22.6,22.6c-12.5,0-22.6-10.1-22.6-22.6
				C315.5,153.1,325.7,143,338.1,143 M338.1,140c-14.1,0-25.6,11.5-25.6,25.6c0,14.1,11.5,25.6,25.6,25.6s25.6-11.5,25.6-25.6
				C363.8,151.5,352.3,140,338.1,140L338.1,140z"/>
		</g>
	</g>
	<g>
		<path class="st5" d="M350,153.8h-9.2l-1,5h7.3c0.8,0,0.8,0.4,0.7,0.9c-0.1,0.2-0.3,0.9-0.4,1c-0.2,0.4-0.4,0.5-0.9,0.5h-7.2
			l-2.7,15.4h6.3l2-10.3c0,0,3.4-0.1,5.8-0.6c2.4-0.5,3.3-2.3,3.9-4.7C355.3,158.5,356.5,153.8,350,153.8"/>
		<path class="st5" d="M337.7,158.8l0.8-5h-11.7c-1.7,0-2.6,1-3.1,5L337.7,158.8z"/>
		<path class="st5" d="M335.3,171.9h-7.1c-1.1,0-0.9-0.4-0.5-2.3c0.3-1.5,0.9-3.3,0.9-3.3h7.9l0.8-5.1h-14.1
			c-0.2,1.4-1.8,9.9-2,10.9c-0.2,1.2-0.5,4.5,3.3,4.5h10.1L335.3,171.9z"/>
	</g>
</g>
<g>
	<g>
		<path class="st2" d="M389.4,193.4h-0.1c-16.1,0-29.2,13.1-29.2,29.2c0,8.8,4.5,15.7,9.5,22.6l19.6,26.8l19.7-26.8
			c5-6.9,9.5-13.7,9.5-22.6C418.5,206.5,405.5,193.4,389.4,193.4z M389.3,241.6c-10.5,0-19-8.5-19-19c0-10.5,8.5-19,19-19
			c10.5,0,19,8.5,19,19C408.3,233,399.8,241.6,389.3,241.6z"/>
	</g>
	<g>
		<g>
			<path class="st3" d="M389.3,242.8c-11.2,0-20.3-9.1-20.3-20.3c0-11.2,9.1-20.3,20.3-20.3s20.3,9.1,20.3,20.3
				C409.5,233.8,400.5,242.8,389.3,242.8z"/>
			<path class="st4" d="M389.3,203.6c10.5,0,19,8.5,19,19c0,10.5-8.5,19-19,19c-10.5,0-19-8.5-19-19
				C370.3,212.1,378.8,203.6,389.3,203.6 M389.3,201.1c-11.9,0-21.5,9.7-21.5,21.5c0,11.9,9.7,21.5,21.5,21.5s21.5-9.7,21.5-21.5
				C410.8,210.7,401.2,201.1,389.3,201.1L389.3,201.1z"/>
		</g>
	</g>
	<g>
		<path class="st5" d="M399.3,212.7h-7.7l-0.8,4.2h6.1c0.7,0,0.7,0.4,0.6,0.8c-0.1,0.2-0.3,0.8-0.3,0.9c-0.2,0.3-0.4,0.4-0.8,0.4h-6
			l-2.3,12.9h5.3l1.7-8.6c0,0,2.8-0.1,4.8-0.5c2-0.5,2.8-2,3.3-3.9C403.7,216.7,404.7,212.7,399.3,212.7"/>
		<path class="st5" d="M388.9,216.9l0.7-4.2h-9.9c-1.4,0-2.2,0.8-2.6,4.2L388.9,216.9z"/>
		<path class="st5" d="M387,227.9h-6c-0.9,0-0.8-0.4-0.5-1.9c0.2-1.3,0.8-2.8,0.8-2.8h6.7l0.7-4.2h-11.9c-0.2,1.2-1.5,8.3-1.6,9.2
			c-0.2,1-0.5,3.8,2.7,3.8h8.5L387,227.9z"/>
	</g>
</g>
</svg>
