<?xml version="1.0" encoding="utf-8"?>
<!-- Generator: Adobe Illustrator 26.2.1, SVG Export Plug-In . SVG Version: 6.00 Build 0)  -->
<svg version="1.1" id="Layer_1" xmlns="http://www.w3.org/2000/svg" xmlns:xlink="http://www.w3.org/1999/xlink" x="0px" y="0px"
	 viewBox="0 0 555 106" style="enable-background:new 0 0 555 106;" xml:space="preserve">
<style type="text/css">
	.st0{fill:#FFFFFF;}
	.st1{fill:#EE3124;}
	.st2{fill:#FFD200;stroke:#EE3124;stroke-width:0;stroke-miterlimit:40;}
	.st3{fill:#EC1E2F;}
	.st4{fill:#056CB6;}
	.st5{fill:#EC2030;}
</style>
<g>
	<g>
		<path class="st0" d="M497.2,105.6c-2.2,0-4.2-0.7-6-1.9l-1.1-0.8h-28.9l-2.7-21.5l-16.8-12.2l-0.1-0.7c-0.8-3.7-1.1-7.5-1.1-11.4
			c0-31.3,25.5-56.8,56.8-56.8S554,25.8,554,57.1c0,3.8-0.4,7.6-1.1,11.4l-0.1,0.7l-16.8,12.2l-2.7,21.5h-28.9l-1.1,0.8
			C501.5,105,499.4,105.6,497.2,105.6z M464.7,99.1h26.8l2.1,1.5c2.2,1.6,5.2,1.6,7.4,0l2.1-1.5h26.8l2.5-19.8L549.2,67
			c0.6-3.2,0.9-6.6,0.9-9.9c0-29.2-23.7-52.9-52.9-52.9c-29.2,0-52.9,23.7-52.9,52.9c0,3.3,0.3,6.6,0.9,9.9l16.9,12.3L464.7,99.1z"
			/>
	</g>
	<g>
		<path class="st1" d="M490.8,101H463l-2.6-20.6l-16.9-12.3c-0.7-3.6-1.1-7.3-1.1-11c0-30.3,24.6-54.8,54.8-54.8
			c30.3,0,54.8,24.6,54.8,54.8c0,3.7-0.4,7.4-1.1,11l-16.9,12.3l-2.6,20.6h-27.8l-1.6,1.2c-1.4,1-3.1,1.6-4.8,1.6
			c-1.7,0-3.4-0.6-4.8-1.6L490.8,101z"/>
	</g>
	<g>
		<path class="st2" d="M491.7,91.4h-20.2l-2-16.3l-16.7-12.1c-0.5-1.9-0.7-3.9-0.7-5.8c0-3.3,0.7-6.5,2-9.5l29.5,29.8L454.9,42
			c1.1-4.6,3.6-8.7,7.2-11.9l25.7,44.4L464.9,26c2.9-3.9,7.1-6.8,11.7-8.3l15.7,55.1l-11.5-57.3c3.5-2,7.4-3,11.4-3
			c0.8,0,1.7,0,2.5,0.1l2.3,59.6l2.3-59.6c0.8-0.1,1.7-0.1,2.5-0.1c4,0,8,1,11.4,3l-11.5,57.3l15.7-55.1c4.7,1.4,8.8,4.3,11.7,8.3
			l-22.8,48.6l25.7-44.4c3.5,3.1,6,7.3,7.2,11.9L511,77.4l29.5-29.8c1.3,3,2,6.2,2,9.5c0,2-0.2,3.9-0.7,5.8L525.1,75l-2,16.3h-20.2
			l-3,2.2c-0.7,0.5-1.7,0.8-2.6,0.8c-0.9,0-1.8-0.3-2.6-0.8L491.7,91.4z"/>
	</g>
</g>
<g>
	<g>
		<path class="st3" d="M277.3,67.9c4.8,0,8.7-3.9,8.7-8.7c0-4.8-3.9-8.7-8.7-8.7c-4.8,0-8.7,3.9-8.7,8.7
			C268.6,64,272.5,67.9,277.3,67.9L277.3,67.9z M258.4,59.2c0-10.4,8.4-18.9,18.9-18.9s18.9,8.4,18.9,18.9
			c0,10.4-8.4,18.9-18.9,18.9S258.4,69.6,258.4,59.2"/>
		<path class="st4" d="M310.8,59.2c0-4.8,3.9-8.7,8.7-8.7s8.7,3.9,8.7,8.7c0,4.8-3.9,8.7-8.7,8.7C314.6,67.9,310.8,64,310.8,59.2
			L310.8,59.2z M300.4,77.1h10.1v-3.2c2.6,2.9,5.9,4,9.7,4c10.3,0,18-8.6,18-18.6c0-10-7.7-18.8-18-18.8c-3.7,0-6.9,1.2-9.7,3.6
			V28.3h-10.1V77.1 M358.4,77.1h10.1V28.3h-10.1V77.1L358.4,77.1z M342.6,77.1h10.1V41.3h-10.1V77.1L342.6,77.1L342.6,77.1z
			 M342.6,37.9h10.1v-9.6h-10.1V37.9L342.6,37.9L342.6,37.9z M205.3,28.3h15.8l8.9,30h0.1l9.1-30h15.4v48.8h-10.1V42.6h-0.1
			l-9.7,34.5h-9.3l-9.6-34.5h-0.1v34.5h-10.1V28.3"/>
	</g>
	<g>
		<path class="st5" d="M142.2,41.5h9.8v3.4c1-0.9,4.5-4.2,10.8-4.2c7.4,0,13.3,5.4,13.3,14v22.4h-10.4V57.5c0-4.8-2.3-7.6-6.6-7.6
			c-4.1,0-6.6,2.7-6.6,7.6v19.6h-10.4V41.5 M98.5,59.3c0-10.3,8.2-18.6,18.9-18.6c10.8,0,19,8.3,19,18.6c0,10.2-8.2,18.5-19,18.5
			C106.7,77.8,98.5,69.5,98.5,59.3 M108.8,59.3c0,4.9,3.7,9,8.8,9c5.1,0,8.8-4,8.8-9c0-5-3.7-9-8.8-9
			C112.5,50.3,108.8,54.4,108.8,59.3 M37.3,77.1h12.2l11-14l6.8,6.9L51.6,89.4h12.3l10-12.9l18.8,19.2h14.8L80.4,68.4l21.3-27H89.5
			L73.8,61.7L67,54.9l17.5-22.1H72.3l-12,15.4l-6.5-6.7H39.2l14.7,14.8L37.3,77.1 M2.9,28.6v48.5h31.9V68H13.8V56.4h20.1v-8.8H13.8
			v-10h21.1v-9.1L2.9,28.6"/>
	</g>
</g>
</svg>
