<?xml version="1.0" encoding="utf-8"?>
<!-- Generator: Adobe Illustrator 26.2.1, SVG Export Plug-In . SVG Version: 6.00 Build 0)  -->
<svg version="1.1" id="Layer_1" xmlns="http://www.w3.org/2000/svg" xmlns:xlink="http://www.w3.org/1999/xlink" x="0px" y="0px"
	 viewBox="0 0 30 30" style="enable-background:new 0 0 30 30;" xml:space="preserve">
<style type="text/css">
	.st0{fill:#050606;}
</style>
<g>
	<path class="st0" d="M15,0C6.7,0,0,6.7,0,15c0,8.3,6.7,15,15,15c8.3,0,15-6.7,15-15C30,6.7,23.3,0,15,0z M22.8,11.3
		c0.6,8.9-9,14.3-16.8,9.9c0,0,3.8,0.2,5.5-1.7c0,0-2.4,0.2-3.5-2.7c0,0,0.9,0.3,1.8-0.1c0,0-2.8-0.4-3-3.7c0,0,0.9,0.7,1.9,0.4
		c0,0-3.1-1.8-1.3-5.1c0,0,3.3,4.1,7.9,4c-0.7-3.9,3.9-6.2,6.7-3.4c0,0,1.2-0.3,2.3-1c0,0-0.4,1.3-1.7,2.2c0,0,1.5-0.2,2.1-0.6
		C24.6,9.5,23.9,10.8,22.8,11.3z"/>
</g>
</svg>
